<svg width="130" height="33" viewBox="0 0 130 33" fill="none" xmlns="http://www.w3.org/2000/svg">
<g>
<path d="M41.68 12.954V9.23915C41.68 8.26411 40.8902 7.47437 39.9152 7.47437H38.1504V21.4272C38.168 27.401 43.0058 32.2387 48.9796 32.2564C54.9534 32.2387 59.7911 27.401 59.8087 21.4272V7.47437H58.044C57.0689 7.47437 56.2792 8.26411 56.2792 9.23915V21.4228C56.2615 25.4355 53.0121 28.6849 48.9994 28.7025C44.9867 28.6849 41.7373 25.4355 41.7197 21.4228V12.9562H41.68V12.954Z" fill="black"/>
<path d="M24.3695 25.453C23.7452 26.0266 23.0636 26.534 22.3356 26.9686C23.2312 26.9928 24.1224 27.0855 25.0026 27.2421C25.7174 27.37 26.4233 27.5443 27.116 27.7583C29.8315 25.1199 31.5169 21.6014 31.8721 17.8314C31.9206 17.335 31.9427 16.8343 31.9427 16.3247C31.9537 7.50296 24.8129 0.344539 15.9912 0.333509C7.16946 0.322479 0.0110427 7.46325 1.27607e-05 16.285C-0.0110172 25.1067 7.12975 32.2651 15.9515 32.2762C15.9647 32.2762 15.978 32.2762 15.9912 32.2762C16.2713 32.2762 16.5493 32.2762 16.8228 32.2541H31.8721C29.0374 29.9621 25.5012 28.7157 21.8569 28.7245H15.9912C9.15705 28.7311 3.609 23.1963 3.60238 16.3622V16.3335C3.60238 9.49055 9.14823 3.9425 15.9934 3.9425C22.8364 3.9425 28.3844 9.48834 28.3844 16.3335C28.3844 19.8035 26.9307 23.1147 24.3739 25.4619L24.3695 25.4553V25.453Z" fill="black"/>
<path d="M117.872 0.430664H116.107V21.5883C116.125 27.5157 120.923 32.316 126.851 32.3336H129.09V30.5688C129.09 29.5938 128.3 28.804 127.325 28.804H126.844C122.869 28.793 119.65 25.5745 119.639 21.5993V11.1054H124.775C125.75 11.1054 126.54 10.3157 126.54 9.34063V7.57585H119.633V2.22192C119.648 1.24688 118.869 0.446106 117.894 0.430664C117.888 0.430664 117.879 0.430664 117.872 0.430664Z" fill="black"/>
<path d="M99.4699 0.344482H97.7051V21.5043C97.7227 27.4318 102.521 32.232 108.448 32.2496H110.701V30.4848C110.701 29.5098 109.911 28.7201 108.936 28.7201H108.453C104.48 28.7068 101.261 25.4883 101.248 21.5153V11.0192H106.368C107.343 11.0192 108.133 10.2295 108.133 9.25445V7.48966H101.224V2.13795C101.239 1.1629 100.463 0.359924 99.4875 0.344482C99.4809 0.344482 99.4765 0.344482 99.4699 0.344482Z" fill="black"/>
<path d="M89.007 32.2498H90.7718V19.8587C90.7673 13.0158 85.2149 7.47435 78.3741 7.47876C71.5312 7.48317 65.9897 13.0356 65.9941 19.8764C65.9986 26.7194 71.551 32.2608 78.3918 32.2564C81.7228 32.2542 84.9127 30.9107 87.2422 28.5283V30.4783C87.2378 31.4534 88.0253 32.2453 89.0003 32.2498H89.007ZM78.3874 28.7202C73.4989 28.7202 69.537 24.7582 69.537 19.8698C69.537 14.9813 73.4989 11.0194 78.3874 11.0194C83.2758 11.0194 87.2378 14.9813 87.2378 19.8698C87.2311 24.7538 83.2714 28.7092 78.3874 28.7092V28.7202Z" fill="black"/>
</g>
</svg>
