<?xml version="1.0" standalone="no"?>
<!DOCTYPE svg PUBLIC "-//W3C//DTD SVG 20010904//EN"
 "http://www.w3.org/TR/2001/REC-SVG-20010904/DTD/svg10.dtd">
<svg version="1.0" xmlns="http://www.w3.org/2000/svg"
 width="1024.000000pt" height="1024.000000pt" viewBox="0 0 1024.000000 1024.000000"
 preserveAspectRatio="xMidYMid meet">

<g transform="translate(0.000000,1024.000000) scale(0.100000,-0.100000)"
fill="#000000" stroke="none">
<path d="M4735 8279 c-519 -33 -980 -125 -1216 -244 -130 -66 -223 -148 -260
-229 -18 -40 -19 -115 -19 -2494 0 -2205 2 -2461 16 -2530 64 -309 335 -505
845 -611 330 -68 542 -86 1029 -86 435 0 566 9 870 61 516 87 825 250 939 496
76 162 71 -44 71 2666 0 2129 -2 2435 -15 2472 -84 238 -522 409 -1230 479
-291 29 -744 38 -1030 20z m780 -99 c525 -33 929 -118 1176 -247 106 -55 171
-110 198 -166 36 -75 25 -122 -46 -188 -163 -152 -563 -272 -1113 -333 -175
-20 -581 -38 -690 -32 -47 3 -146 8 -220 11 -351 15 -680 66 -978 151 -267 77
-459 182 -492 270 -93 245 453 463 1320 528 217 17 633 19 845 6z m-2060 -764
c242 -135 694 -242 1210 -287 181 -16 761 -16 935 -1 590 53 1020 164 1251
322 l59 40 0 -1404 0 -1405 -64 -36 c-230 -128 -662 -226 -1226 -277 -204 -18
-794 -15 -1025 6 -511 45 -921 135 -1172 256 l-83 41 0 1410 0 1411 33 -24
c17 -13 55 -37 82 -52z m110 -2956 c253 -89 634 -157 1085 -192 239 -19 847
-16 1060 6 494 49 898 139 1117 250 40 20 75 36 78 36 3 0 4 -388 2 -862 -3
-848 -3 -864 -24 -926 -54 -160 -175 -287 -356 -373 l-62 -29 -3 252 c-2 179
1 254 9 257 28 9 79 66 94 104 14 37 15 103 13 547 -3 484 -4 506 -23 539 -66
112 -214 112 -280 0 -19 -32 -20 -55 -23 -509 -2 -261 0 -498 3 -527 7 -60 37
-109 83 -138 l31 -20 -2 -270 -2 -269 -80 -23 c-609 -176 -1718 -177 -2324 -2
-138 40 -272 95 -346 144 -83 55 -174 149 -212 221 -63 118 -63 117 -63 1045
l0 839 68 -34 c37 -18 108 -48 157 -66z m2895 -420 c19 -19 20 -33 20 -530 0
-497 -1 -511 -20 -530 -27 -27 -56 -25 -85 5 l-25 24 0 499 c0 490 0 500 21
526 25 31 61 34 89 6z"/>
<path d="M5824 7601 c-101 -7 -124 -18 -124 -62 0 -47 29 -54 180 -42 74 6
136 16 145 23 18 15 20 61 3 78 -12 12 -45 13 -204 3z"/>
<path d="M3522 7068 c-22 -22 -14 -67 13 -80 28 -12 50 0 61 34 12 39 -45 75
-74 46z"/>
<path d="M6658 7054 c-14 -31 -1 -57 31 -62 28 -4 51 14 51 42 0 50 -62 65
-82 20z"/>
<path d="M6482 7014 c-39 -27 -19 -94 28 -94 43 0 58 69 22 98 -20 15 -23 15
-50 -4z"/>
<path d="M3700 7000 c-11 -11 -20 -24 -20 -30 0 -17 39 -50 59 -50 18 0 51 34
51 52 0 14 -39 48 -55 48 -8 0 -24 -9 -35 -20z"/>
<path d="M3890 6960 c-24 -24 -25 -38 -4 -68 17 -24 53 -29 72 -10 20 20 14
65 -10 82 -29 20 -34 20 -58 -4z"/>
<path d="M6276 6958 c-21 -29 -20 -51 2 -71 37 -34 82 -15 82 34 0 54 -55 78
-84 37z"/>
<path d="M6088 6919 c-12 -7 -18 -22 -18 -49 0 -33 4 -41 24 -46 59 -14 93 56
44 90 -26 19 -27 19 -50 5z"/>
<path d="M4081 6901 c-16 -29 -14 -46 8 -65 28 -25 64 -17 75 17 13 37 -2 61
-42 65 -22 2 -34 -2 -41 -17z"/>
<path d="M5879 6879 c-22 -22 -20 -66 4 -81 52 -33 105 42 61 86 -21 22 -40
20 -65 -5z"/>
<path d="M4277 6869 c-28 -39 1 -83 50 -77 24 3 28 8 31 38 6 55 -51 82 -81
39z"/>
<path d="M5675 6850 c-21 -23 -14 -64 13 -79 28 -15 66 9 70 42 6 54 -47 77
-83 37z"/>
<path d="M4470 6841 c-5 -11 -10 -24 -10 -30 0 -16 38 -51 54 -51 20 0 46 28
46 50 0 45 -69 69 -90 31z"/>
<path d="M3522 6838 c-17 -17 -15 -65 4 -72 33 -12 55 -6 64 20 13 32 13 30
-6 48 -18 19 -45 21 -62 4z"/>
<path d="M4676 6828 c-21 -29 -20 -51 2 -71 25 -23 48 -21 66 5 21 30 20 44
-4 68 -26 26 -45 25 -64 -2z"/>
<path d="M5474 6825 c-18 -28 -11 -60 17 -76 45 -24 84 25 60 77 -14 32 -55
32 -77 -1z"/>
<path d="M6660 6831 c-15 -29 -12 -46 10 -66 18 -17 21 -17 45 -1 27 18 33 54
13 74 -18 18 -56 14 -68 -7z"/>
<path d="M5080 6820 c-36 -36 -18 -90 30 -90 50 0 69 66 28 94 -29 20 -34 20
-58 -4z"/>
<path d="M5286 6827 c-12 -9 -17 -23 -14 -47 3 -30 7 -35 33 -38 47 -6 73 48
39 82 -19 19 -35 20 -58 3z"/>
<path d="M4864 6806 c-13 -53 23 -89 65 -67 49 27 32 91 -24 91 -28 0 -36 -4
-41 -24z"/>
<path d="M3700 6772 c-45 -37 3 -108 56 -83 30 13 33 60 6 84 -24 22 -35 21
-62 -1z"/>
<path d="M6482 6774 c-31 -21 -30 -71 2 -85 50 -23 98 40 61 81 -22 24 -34 25
-63 4z"/>
<path d="M3878 6715 c-18 -40 3 -75 46 -75 35 0 46 12 46 54 0 50 -71 66 -92
21z"/>
<path d="M6277 6722 c-21 -23 -21 -41 -1 -70 29 -42 84 -17 84 38 0 47 -52 66
-83 32z"/>
<path d="M4082 6678 c-29 -29 -2 -88 40 -88 30 0 48 17 48 46 0 44 -58 72 -88
42z"/>
<path d="M6077 6670 c-8 -11 -12 -31 -9 -45 14 -75 104 -46 93 30 -6 39 -60
49 -84 15z"/>
<path d="M4282 6648 c-19 -19 -15 -75 6 -84 25 -11 45 -6 64 17 36 42 -31 106
-70 67z"/>
<path d="M5873 6634 c-15 -24 -15 -29 -2 -53 28 -50 89 -31 89 28 0 54 -57 71
-87 25z"/>
<path d="M4479 6619 c-26 -26 -21 -59 13 -79 26 -14 29 -13 50 7 18 19 20 27
13 49 -14 38 -50 49 -76 23z"/>
<path d="M5676 6614 c-19 -18 -20 -38 -6 -65 22 -39 90 -13 90 35 0 44 -52 63
-84 30z"/>
<path d="M4677 6602 c-34 -38 -15 -82 35 -82 40 0 58 39 34 75 -19 29 -46 32
-69 7z"/>
<path d="M5482 6604 c-27 -18 -29 -55 -4 -77 23 -21 46 -22 66 -1 21 21 20 57
-2 77 -23 21 -32 21 -60 1z"/>
<path d="M3522 6598 c-7 -7 -12 -24 -12 -38 0 -52 48 -68 76 -25 15 23 15 27
0 50 -18 27 -45 32 -64 13z"/>
<path d="M4876 6594 c-20 -19 -21 -58 -2 -73 25 -21 69 -9 80 21 17 50 -42 89
-78 52z"/>
<path d="M5280 6590 c-24 -24 -25 -38 -4 -68 18 -27 45 -28 67 -4 23 26 21 58
-5 76 -29 20 -34 20 -58 -4z"/>
<path d="M6667 6592 c-21 -23 -22 -46 -1 -67 10 -10 24 -13 38 -9 38 12 48 50
20 78 -20 21 -37 20 -57 -2z"/>
<path d="M5070 6581 c-14 -27 -13 -47 6 -65 42 -42 101 4 76 59 -15 32 -66 35
-82 6z"/>
<path d="M3702 6540 c-27 -25 -28 -41 -3 -71 16 -20 23 -22 47 -14 35 12 43
45 20 81 -20 29 -35 30 -64 4z"/>
<path d="M6479 6539 c-23 -23 -22 -67 2 -82 26 -16 66 0 73 28 14 54 -38 91
-75 54z"/>
<path d="M3903 6499 c-31 -11 -40 -54 -18 -79 36 -40 89 -17 83 36 -4 34 -35
55 -65 43z"/>
<path d="M6277 6492 c-23 -25 -21 -55 4 -78 19 -17 23 -17 47 -3 30 16 41 61
21 85 -16 20 -53 18 -72 -4z"/>
<path d="M4092 6454 c-27 -18 -29 -55 -4 -77 24 -22 45 -21 65 1 23 26 21 58
-5 76 -12 9 -25 16 -28 16 -3 0 -16 -7 -28 -16z"/>
<path d="M6093 6460 c-30 -12 -38 -46 -19 -75 18 -27 54 -33 74 -13 18 18 14
63 -6 81 -21 19 -19 19 -49 7z"/>
<path d="M4286 6427 c-21 -16 -24 -60 -6 -82 27 -32 80 -6 80 40 0 25 -24 55
-44 55 -7 0 -20 -6 -30 -13z"/>
<path d="M5880 6420 c-24 -24 -25 -38 -4 -68 29 -42 84 -17 84 38 0 47 -46 64
-80 30z"/>
<path d="M4480 6400 c-25 -25 -25 -52 0 -75 46 -41 101 17 66 70 -20 30 -39
32 -66 5z"/>
<path d="M5676 6394 c-9 -8 -16 -24 -16 -34 0 -22 26 -50 46 -50 46 0 73 57
42 88 -17 17 -54 15 -72 -4z"/>
<path d="M4676 6384 c-22 -22 -20 -60 5 -78 47 -32 102 32 64 74 -22 24 -48
26 -69 4z"/>
<path d="M5477 6382 c-22 -24 -21 -55 1 -75 25 -23 59 -21 72 2 32 61 -29 122
-73 73z"/>
<path d="M4870 6371 c-22 -42 1 -81 46 -81 31 0 50 43 35 77 -14 30 -65 32
-81 4z"/>
<path d="M5074 6365 c-32 -49 19 -101 65 -68 26 18 27 54 3 76 -26 24 -49 21
-68 -8z"/>
<path d="M5276 6374 c-33 -32 -8 -84 39 -84 24 0 45 25 45 54 0 20 -28 46 -50
46 -10 0 -26 -7 -34 -16z"/>
<path d="M6671 6373 c-40 -28 -18 -88 30 -81 29 4 43 29 36 60 -8 31 -38 41
-66 21z"/>
<path d="M3533 6367 c-41 -18 -25 -87 19 -87 21 0 52 44 45 64 -9 24 -39 35
-64 23z"/>
<path d="M3696 6314 c-21 -21 -20 -47 3 -75 16 -20 23 -22 46 -14 39 14 49 47
24 79 -23 30 -50 33 -73 10z"/>
<path d="M6477 6312 c-26 -29 -22 -70 9 -84 32 -15 54 -3 67 36 17 51 -41 87
-76 48z"/>
<path d="M3884 6256 c-13 -22 -14 -29 -2 -53 15 -31 50 -42 74 -23 17 15 19
71 2 88 -20 20 -56 14 -74 -12z"/>
<path d="M6277 6262 c-9 -10 -17 -25 -17 -34 0 -23 36 -50 61 -46 29 4 49 50
33 76 -16 24 -57 27 -77 4z"/>
<path d="M6093 6239 c-40 -15 -42 -78 -2 -99 37 -20 82 31 66 74 -9 22 -40 35
-64 25z"/>
<path d="M4080 6221 c-23 -44 -5 -81 40 -81 32 0 50 17 50 46 0 48 -68 74 -90
35z"/>
<path d="M4282 6198 c-7 -7 -12 -24 -12 -38 0 -31 17 -50 45 -50 28 0 45 19
45 50 0 31 -17 50 -45 50 -12 0 -26 -5 -33 -12z"/>
<path d="M5874 6185 c-22 -33 -7 -70 31 -77 33 -7 55 14 55 51 0 54 -57 71
-86 26z"/>
<path d="M4477 6184 c-13 -13 -7 -71 8 -84 23 -19 64 -4 71 27 4 14 2 33 -3
42 -10 17 -64 27 -76 15z"/>
<path d="M5681 6181 c-8 -5 -14 -24 -14 -41 0 -34 15 -50 49 -50 27 0 44 19
44 50 0 44 -41 65 -79 41z"/>
<path d="M4670 6161 c-14 -27 -13 -47 6 -65 33 -33 84 -10 84 38 0 41 -70 63
-90 27z"/>
<path d="M5477 6162 c-33 -36 -9 -82 43 -82 29 0 40 15 40 54 0 45 -52 62 -83
28z"/>
<path d="M4872 6158 c-7 -7 -12 -24 -12 -38 0 -33 17 -50 51 -50 34 0 57 46
39 79 -12 24 -58 29 -78 9z"/>
<path d="M5076 6154 c-32 -31 -11 -84 32 -84 35 0 52 16 52 50 0 14 -5 31 -12
38 -17 17 -54 15 -72 -4z"/>
<path d="M5268 6145 c-9 -19 -8 -29 6 -50 19 -29 46 -32 69 -7 34 38 15 82
-35 82 -20 0 -32 -7 -40 -25z"/>
<path d="M3514 6115 c-15 -23 -15 -27 0 -50 28 -43 76 -27 76 25 0 52 -48 68
-76 25z"/>
<path d="M6662 6128 c-31 -31 3 -93 46 -81 45 11 35 93 -11 93 -13 0 -28 -5
-35 -12z"/>
<path d="M3692 6088 c-16 -16 -15 -50 1 -70 22 -28 47 -29 73 -3 24 24 24 26
9 55 -12 22 -23 30 -43 30 -16 0 -33 -5 -40 -12z"/>
<path d="M6475 6084 c-10 -10 -15 -29 -13 -48 2 -23 10 -33 32 -41 24 -8 31
-6 47 14 23 28 24 54 3 75 -20 21 -48 20 -69 0z"/>
<path d="M3886 6028 c-9 -12 -16 -27 -16 -33 0 -18 23 -42 46 -49 46 -14 73
54 36 87 -25 23 -48 21 -66 -5z"/>
<path d="M6276 6031 c-36 -40 8 -97 59 -78 19 8 31 56 18 76 -15 24 -56 25
-77 2z"/>
<path d="M6083 6012 c-12 -8 -16 -24 -14 -59 3 -53 91 -31 91 22 0 37 -43 59
-77 37z"/>
<path d="M4078 5985 c-17 -37 3 -75 40 -75 33 0 52 16 52 45 -1 54 -70 77 -92
30z"/>
<path d="M4288 5978 c-34 -27 -26 -72 15 -87 34 -13 57 5 57 44 0 47 -38 69
-72 43z"/>
<path d="M5876 5968 c-21 -29 -20 -41 2 -61 28 -25 59 -21 76 10 30 59 -40
105 -78 51z"/>
<path d="M4475 5946 c-32 -49 24 -109 66 -70 24 22 24 49 -1 74 -26 26 -46 25
-65 -4z"/>
<path d="M5676 5949 c-21 -31 -1 -79 34 -79 22 0 50 31 50 56 0 45 -57 60 -84
23z"/>
<path d="M4680 5942 c-43 -35 -4 -101 47 -81 34 13 41 58 13 81 -12 10 -26 18
-30 18 -4 0 -18 -8 -30 -18z"/>
<path d="M5474 5939 c-17 -19 -17 -23 -3 -47 27 -49 89 -37 89 17 0 51 -51 69
-86 30z"/>
<path d="M4876 5934 c-32 -32 -11 -84 34 -84 29 0 50 22 50 54 0 20 -28 46
-50 46 -10 0 -26 -7 -34 -16z"/>
<path d="M5077 5932 c-23 -25 -21 -48 4 -73 32 -32 79 -11 79 38 0 47 -53 69
-83 35z"/>
<path d="M5276 5935 c-25 -66 26 -113 69 -65 28 31 10 74 -31 78 -22 2 -33 -2
-38 -13z"/>
<path d="M3522 5898 c-7 -7 -12 -24 -12 -38 0 -53 58 -70 79 -24 21 48 -32 97
-67 62z"/>
<path d="M6666 5891 c-37 -41 -1 -95 48 -73 30 13 35 51 10 76 -21 21 -37 20
-58 -3z"/>
<path d="M6477 5852 c-10 -10 -17 -27 -17 -38 0 -47 59 -60 86 -19 15 23 15
27 0 50 -19 30 -46 32 -69 7z"/>
<path d="M3704 5852 c-38 -26 -14 -92 35 -92 51 0 63 75 15 94 -21 8 -36 7
-50 -2z"/>
<path d="M6276 5811 c-36 -40 8 -97 59 -78 19 8 31 56 18 76 -15 24 -56 25
-77 2z"/>
<path d="M3890 5800 c-24 -24 -24 -29 -4 -58 21 -30 70 -30 80 1 10 29 6 49
-14 65 -22 17 -39 15 -62 -8z"/>
<path d="M6082 5788 c-16 -16 -15 -63 2 -78 39 -31 96 25 70 68 -14 21 -55 27
-72 10z"/>
<path d="M4090 5770 c-26 -26 -25 -52 1 -76 19 -17 23 -17 47 -3 36 20 41 61
10 83 -29 20 -34 20 -58 -4z"/>
<path d="M5876 5751 c-24 -26 -12 -69 22 -78 33 -8 56 8 60 41 6 52 -47 76
-82 37z"/>
<path d="M4273 5738 c-14 -31 1 -66 31 -74 30 -7 45 1 55 30 13 35 -7 66 -44
66 -23 0 -35 -6 -42 -22z"/>
<path d="M5674 5735 c-20 -30 -11 -62 22 -77 31 -14 64 13 64 53 0 49 -58 66
-86 24z"/>
<path d="M4476 5727 c-20 -30 -10 -66 22 -74 53 -13 85 50 40 81 -31 22 -45
20 -62 -7z"/>
<path d="M4681 5723 c-28 -19 -27 -58 1 -77 31 -22 45 -20 64 9 32 49 -19 101
-65 68z"/>
<path d="M5474 5715 c-22 -33 -7 -70 31 -77 48 -10 75 50 39 86 -23 23 -51 19
-70 -9z"/>
<path d="M4877 5712 c-36 -39 -7 -88 46 -80 32 5 46 52 22 78 -23 25 -47 26
-68 2z"/>
<path d="M5282 5718 c-7 -7 -12 -24 -12 -38 0 -31 17 -50 45 -50 27 0 45 18
45 46 0 43 -50 70 -78 42z"/>
<path d="M5070 5701 c-15 -28 -12 -46 8 -64 45 -40 99 3 74 58 -15 32 -66 35
-82 6z"/>
<path d="M3514 5645 c-15 -23 -15 -27 0 -50 28 -43 76 -27 76 25 0 52 -48 68
-76 25z"/>
<path d="M6666 5654 c-40 -39 0 -98 50 -75 17 7 24 19 24 39 0 49 -42 69 -74
36z"/>
<path d="M3700 5620 c-11 -11 -20 -26 -20 -33 0 -25 31 -57 55 -57 45 0 61 68
23 94 -29 20 -34 20 -58 -4z"/>
<path d="M6476 5624 c-32 -32 -14 -84 30 -84 39 0 66 57 39 84 -21 20 -49 20
-69 0z"/>
<path d="M6275 5590 c-21 -23 -13 -65 16 -83 27 -17 69 16 69 53 0 48 -52 66
-85 30z"/>
<path d="M3884 5575 c-22 -33 -6 -72 32 -81 55 -14 79 58 31 91 -30 21 -44 19
-63 -10z"/>
<path d="M6080 5560 c-11 -11 -20 -26 -20 -33 0 -22 30 -57 49 -57 45 0 70 79
32 100 -28 14 -38 13 -61 -10z"/>
<path d="M4085 5550 c-23 -25 -13 -67 20 -82 52 -23 89 54 43 86 -29 21 -41
20 -63 -4z"/>
<path d="M4292 5543 c-38 -15 -33 -85 7 -98 44 -14 80 41 53 81 -9 14 -43 24
-60 17z"/>
<path d="M5868 5526 c-8 -20 -8 -32 0 -52 10 -21 18 -25 44 -22 25 2 35 9 42
31 13 37 -2 61 -42 65 -26 3 -34 -2 -44 -22z"/>
<path d="M4476 5514 c-22 -21 -20 -50 4 -74 42 -42 105 26 65 70 -22 24 -48
26 -69 4z"/>
<path d="M5676 5514 c-45 -45 16 -109 67 -70 20 15 23 56 5 74 -17 17 -54 15
-72 -4z"/>
<path d="M4677 5502 c-23 -25 -21 -55 4 -78 19 -17 23 -17 47 -3 34 19 39 52
13 78 -26 26 -43 26 -64 3z"/>
<path d="M5475 5500 c-37 -41 11 -104 61 -81 18 8 24 19 24 44 0 18 -5 38 -12
45 -18 18 -53 14 -73 -8z"/>
<path d="M4872 5498 c-20 -20 -15 -66 9 -78 48 -26 89 14 69 66 -10 27 -56 34
-78 12z"/>
<path d="M5075 5490 c-28 -31 -10 -74 33 -78 26 -3 34 1 44 22 26 59 -35 102
-77 56z"/>
<path d="M5271 5491 c-16 -29 -14 -46 8 -65 28 -25 64 -17 75 17 13 37 -2 61
-42 65 -22 2 -34 -2 -41 -17z"/>
<path d="M6672 5424 c-39 -27 -23 -84 23 -84 44 0 61 52 27 83 -23 21 -22 21
-50 1z"/>
<path d="M3522 5418 c-17 -17 -15 -63 3 -78 21 -17 47 -9 64 22 14 24 14 28
-3 47 -21 24 -46 27 -64 9z"/>
<path d="M3697 5382 c-10 -10 -17 -23 -17 -29 0 -17 40 -63 55 -63 42 0 62 80
26 100 -28 15 -46 12 -64 -8z"/>
<path d="M6478 5389 c-21 -12 -24 -59 -6 -77 7 -7 21 -12 33 -12 28 0 45 19
45 50 0 44 -33 62 -72 39z"/>
<path d="M3884 5345 c-22 -33 -6 -72 32 -81 48 -12 74 55 36 89 -26 24 -49 21
-68 -8z"/>
<path d="M6277 5352 c-23 -25 -21 -55 4 -78 19 -17 23 -17 47 -3 34 18 42 67
16 86 -25 18 -48 16 -67 -5z"/>
<path d="M4088 5329 c-22 -13 -23 -52 -2 -74 43 -43 110 19 69 65 -20 22 -41
25 -67 9z"/>
<path d="M6084 5333 c-42 -29 -9 -102 39 -89 30 7 46 49 30 75 -11 18 -52 26
-69 14z"/>
<path d="M5880 5310 c-25 -25 -26 -52 -2 -73 38 -34 82 -12 82 42 0 18 -34 51
-52 51 -5 0 -17 -9 -28 -20z"/>
<path d="M4276 5299 c-19 -28 -7 -61 27 -73 33 -12 57 6 57 43 0 51 -55 71
-84 30z"/>
<path d="M4475 5286 c-34 -51 26 -104 69 -60 31 30 9 84 -34 84 -11 0 -27 -11
-35 -24z"/>
<path d="M5680 5290 c-11 -11 -20 -27 -20 -35 0 -16 34 -55 48 -55 20 0 52 33
52 54 0 24 -28 56 -48 56 -7 0 -21 -9 -32 -20z"/>
<path d="M4677 5282 c-21 -23 -22 -46 -1 -66 43 -44 104 7 70 59 -19 29 -46
32 -69 7z"/>
<path d="M5480 5280 c-11 -11 -20 -27 -20 -35 0 -19 35 -55 54 -55 22 0 46 29
46 55 0 26 -24 55 -46 55 -8 0 -23 -9 -34 -20z"/>
<path d="M4876 5274 c-22 -21 -20 -61 3 -74 35 -18 58 -12 71 20 11 26 10 33
-5 50 -22 24 -48 26 -69 4z"/>
<path d="M5075 5270 c-15 -16 -17 -26 -9 -48 8 -22 15 -27 44 -27 29 0 36 5
44 28 20 55 -40 90 -79 47z"/>
<path d="M5276 5274 c-31 -31 -8 -84 36 -84 39 0 63 61 36 88 -17 17 -54 15
-72 -4z"/>
<path d="M3515 5176 c-13 -19 -14 -29 -6 -45 25 -45 81 -33 81 18 0 52 -48 69
-75 27z"/>
<path d="M6666 5184 c-9 -8 -16 -24 -16 -34 0 -22 25 -50 45 -50 21 0 45 29
45 54 0 43 -44 61 -74 30z"/>
<path d="M6482 5164 c-39 -27 -23 -84 23 -84 12 0 26 5 33 12 19 19 15 66 -7
78 -25 13 -22 13 -49 -6z"/>
<path d="M3694 5145 c-15 -23 -15 -27 0 -50 30 -45 86 -28 86 27 0 49 -59 65
-86 23z"/>
<path d="M6278 5139 c-41 -23 -8 -93 40 -87 20 2 29 11 36 35 14 53 -27 81
-76 52z"/>
<path d="M3879 5114 c-19 -50 33 -94 73 -61 40 32 19 87 -33 87 -23 0 -32 -6
-40 -26z"/>
<path d="M6076 5114 c-19 -18 -21 -55 -4 -72 7 -7 24 -12 38 -12 34 0 50 17
50 52 0 43 -53 64 -84 32z"/>
<path d="M4080 5101 c-14 -27 -13 -47 6 -65 33 -33 84 -10 84 38 0 41 -70 63
-90 27z"/>
<path d="M4282 5088 c-33 -33 17 -106 57 -81 20 13 27 59 10 79 -14 17 -51 18
-67 2z"/>
<path d="M5874 5076 c-15 -24 -15 -28 0 -52 24 -35 67 -30 80 9 21 58 -46 93
-80 43z"/>
<path d="M4476 5074 c-21 -21 -20 -47 2 -67 38 -34 82 -12 82 42 0 37 -56 53
-84 25z"/>
<path d="M5684 5082 c-22 -14 -27 -53 -8 -73 34 -38 84 -18 84 33 0 37 -45 61
-76 40z"/>
<path d="M4677 5062 c-22 -24 -21 -45 1 -65 49 -45 113 20 66 67 -21 21 -47
20 -67 -2z"/>
<path d="M4889 5066 c-34 -17 -37 -60 -6 -81 29 -19 55 -11 68 22 17 46 -19
81 -62 59z"/>
<path d="M5474 5055 c-22 -33 -7 -70 31 -77 33 -7 55 14 55 51 0 54 -57 71
-86 26z"/>
<path d="M5074 5049 c-17 -19 -17 -23 -3 -47 27 -49 89 -37 89 17 0 51 -51 69
-86 30z"/>
<path d="M5271 5048 c-10 -27 0 -58 21 -72 20 -12 68 17 68 40 0 53 -72 78
-89 32z"/>
<path d="M3521 4961 c-17 -11 -18 -56 -1 -76 25 -31 61 -15 73 33 9 39 -36 66
-72 43z"/>
<path d="M6660 4949 c-25 -47 15 -93 60 -69 23 12 28 58 8 78 -19 19 -56 14
-68 -9z"/>
<path d="M6481 4944 c-26 -19 -27 -55 -3 -77 38 -35 76 -11 70 44 -4 39 -35
55 -67 33z"/>
<path d="M3700 4930 c-25 -25 -25 -42 0 -65 16 -15 26 -17 48 -9 36 13 42 56
10 78 -29 20 -34 20 -58 -4z"/>
<path d="M3903 4919 c-30 -11 -38 -45 -18 -75 21 -33 64 -30 82 5 20 42 -20
87 -64 70z"/>
<path d="M6270 4900 c-25 -46 11 -90 60 -75 24 7 37 51 23 74 -16 26 -69 26
-83 1z"/>
<path d="M4085 4880 c-23 -25 -13 -67 20 -82 52 -23 89 54 43 86 -29 21 -41
20 -63 -4z"/>
<path d="M6081 4891 c-17 -11 -18 -56 -1 -76 18 -21 46 -19 70 7 25 27 25 33
0 58 -21 21 -46 25 -69 11z"/>
<path d="M5880 4870 c-22 -22 -25 -42 -10 -71 12 -22 59 -26 78 -7 20 20 14
65 -10 82 -29 20 -34 20 -58 -4z"/>
<path d="M4288 4868 c-19 -16 -30 -49 -20 -64 24 -36 73 -36 89 -1 11 23 0 67
-16 67 -5 0 -15 2 -23 5 -7 3 -21 0 -30 -7z"/>
<path d="M4480 4850 c-31 -31 -23 -66 18 -81 30 -12 62 12 62 46 0 42 -51 64
-80 35z"/>
<path d="M5680 4850 c-24 -24 -25 -43 -4 -64 21 -22 61 -20 74 3 14 27 13 47
-6 65 -21 21 -40 20 -64 -4z"/>
<path d="M4677 4842 c-36 -39 -12 -86 40 -80 20 2 30 11 38 32 8 24 6 31 -14
47 -29 24 -43 24 -64 1z"/>
<path d="M5475 4840 c-29 -32 -10 -74 34 -78 37 -4 51 9 51 45 0 26 -25 53
-49 53 -10 0 -26 -9 -36 -20z"/>
<path d="M4878 4839 c-10 -5 -18 -22 -18 -36 0 -45 53 -69 84 -37 44 44 -12
105 -66 73z"/>
<path d="M5075 4830 c-27 -29 -10 -74 28 -78 37 -4 57 13 57 49 0 47 -53 65
-85 29z"/>
<path d="M5274 4825 c-15 -23 -15 -27 0 -50 30 -45 86 -28 86 27 0 49 -59 65
-86 23z"/>
</g>
</svg>
