<?xml version="1.0" encoding="utf-8"?>
<svg viewBox="22.397 6.208 150.2697 171.9682" xmlns="http://www.w3.org/2000/svg">
  <g transform="matrix(5.732272148132324, 0, 0, 5.732272148132324, 17.895370483398438, 0.47576501965522766)" style="">
    <path d="M14.5,5h3C17.8,5,18,4.8,18,4.5S17.8,4,17.5,4h-3C14.2,4,14,4.2,14,4.5S14.2,5,14.5,5z"/>
    <path d="M26.5,30h-4c-0.3,0-0.5-0.2-0.5-0.5V28h0.5c0.3,0,0.5-0.2,0.5-0.5V26h0.5c0.8,0,1.5-0.7,1.5-1.5v-22C25,1.7,24.3,1,23.5,1   h-15C7.7,1,7,1.7,7,2.5v22C7,25.3,7.7,26,8.5,26H9v1.5C9,27.8,9.2,28,9.5,28H10v1.5c0,0.3-0.2,0.5-0.5,0.5h-4C5.2,30,5,30.2,5,30.5   S5.2,31,5.5,31h4c0.8,0,1.5-0.7,1.5-1.5V28h0.5c0.3,0,0.5-0.2,0.5-0.5V26h8v1.5c0,0.3,0.2,0.5,0.5,0.5H21v1.5   c0,0.8,0.7,1.5,1.5,1.5h4c0.3,0,0.5-0.2,0.5-0.5S26.8,30,26.5,30z M11,27h-1v-1h1V27z M20.5,25h-9h-2h-1C8.2,25,8,24.8,8,24.5v-22   C8,2.2,8.2,2,8.5,2h15C23.8,2,24,2.2,24,2.5v22c0,0.3-0.2,0.5-0.5,0.5h-1H20.5z M21,27v-1h1v1H21z"/>
    <path d="M16,16.5c-1.4,0-2.5,1.1-2.5,2.5s1.1,2.5,2.5,2.5s2.5-1.1,2.5-2.5S17.4,16.5,16,16.5z M16,20.5c-0.8,0-1.5-0.7-1.5-1.5   c0-0.7,0.4-1.2,1-1.4V18c0,0.3,0.2,0.5,0.5,0.5s0.5-0.2,0.5-0.5v-0.4c0.6,0.2,1,0.8,1,1.4C17.5,19.8,16.8,20.5,16,20.5z"/>
  </g>
  <path class="cls-1" d="M 42.316 138.47 C 33.59 138.47 26.491 145.677 26.491 154.537 C 26.491 163.396 33.59 170.605 42.316 170.605 C 51.042 170.605 58.143 163.396 58.143 154.537 C 58.143 145.677 51.042 138.47 42.316 138.47 Z M 42.316 169.32 C 34.288 169.32 27.757 162.687 27.757 154.537 C 27.757 146.387 34.288 139.755 42.316 139.755 C 50.345 139.755 56.877 146.387 56.877 154.537 C 56.877 162.687 50.345 169.32 42.316 169.32 Z M 51.741 145.029 C 54.13 147.47 55.611 150.83 55.611 154.537 C 55.611 158.142 54.227 161.532 51.717 164.08 C 51.594 164.206 51.431 164.27 51.27 164.27 C 51.107 164.27 50.946 164.206 50.822 164.08 C 50.575 163.829 50.575 163.423 50.822 163.173 C 52.943 161.017 54.159 158.199 54.313 155.179 L 51.18 155.179 C 50.83 155.179 50.547 154.891 50.547 154.537 C 50.547 154.181 50.83 153.894 51.18 153.894 L 54.312 153.894 C 54.163 151.013 53.032 148.398 51.244 146.383 L 49.031 148.629 C 48.908 148.755 48.746 148.817 48.583 148.817 C 48.422 148.817 48.258 148.755 48.135 148.629 C 47.889 148.378 47.889 147.972 48.135 147.719 L 50.349 145.474 C 48.364 143.659 45.788 142.51 42.951 142.358 L 42.951 145.54 C 42.951 145.894 42.667 146.182 42.318 146.182 C 41.967 146.182 41.685 145.894 41.685 145.54 L 41.685 142.358 C 38.845 142.51 36.269 143.66 34.285 145.474 L 36.498 147.719 C 36.745 147.972 36.745 148.378 36.498 148.629 C 36.375 148.755 36.214 148.817 36.05 148.817 C 35.889 148.817 35.726 148.755 35.603 148.629 L 33.391 146.383 C 31.603 148.398 30.472 151.013 30.323 153.894 L 33.456 153.894 C 33.805 153.894 34.089 154.181 34.089 154.537 C 34.089 154.891 33.805 155.179 33.456 155.179 L 30.322 155.179 C 30.475 158.199 31.691 161.017 33.812 163.173 C 34.06 163.423 34.06 163.829 33.812 164.08 C 33.565 164.332 33.165 164.332 32.918 164.08 C 30.407 161.532 29.024 158.142 29.024 154.537 C 29.024 150.832 30.504 147.47 32.894 145.029 C 32.904 145.018 32.907 145.004 32.918 144.994 C 32.928 144.983 32.942 144.98 32.952 144.969 C 35.358 142.543 38.667 141.041 42.318 141.041 C 45.966 141.041 49.277 142.543 51.682 144.969 C 51.693 144.98 51.707 144.983 51.717 144.994 C 51.728 145.004 51.732 145.018 51.741 145.029 Z M 47.38 162.891 L 37.252 162.891 C 36.902 162.891 36.619 163.181 36.619 163.534 L 36.619 166.106 C 36.619 166.459 36.902 166.749 37.252 166.749 L 47.38 166.749 C 47.731 166.749 48.013 166.459 48.013 166.106 L 48.013 163.534 C 48.013 163.181 47.731 162.891 47.38 162.891 Z M 46.747 165.464 L 37.885 165.464 L 37.885 164.176 L 46.747 164.176 L 46.747 165.464 Z M 39.969 156.011 L 41.098 154.866 C 41.07 154.761 41.05 154.65 41.05 154.537 C 41.05 153.829 41.618 153.252 42.316 153.252 C 42.429 153.252 42.537 153.271 42.64 153.3 L 46.301 149.583 C 46.548 149.333 46.948 149.333 47.195 149.583 C 47.443 149.835 47.443 150.241 47.195 150.493 L 43.535 154.209 C 43.563 154.314 43.582 154.423 43.582 154.537 C 43.582 155.246 43.015 155.822 42.316 155.822 C 42.204 155.822 42.097 155.802 41.993 155.774 L 40.865 156.919 C 40.741 157.045 40.58 157.108 40.417 157.108 C 40.256 157.108 40.093 157.045 39.969 156.919 C 39.722 156.669 39.722 156.263 39.969 156.011 Z" style="stroke-width: 0;"/>
</svg>