<?xml version="1.0" encoding="utf-8"?>
<svg viewBox="22.397 6.208 150.2697 171.9682" xmlns="http://www.w3.org/2000/svg">
  <g transform="matrix(5.732272148132324, 0, 0, 5.732272148132324, 17.895370483398438, 0.47576501965522766)" style="">
    <path d="M14.5,5h3C17.8,5,18,4.8,18,4.5S17.8,4,17.5,4h-3C14.2,4,14,4.2,14,4.5S14.2,5,14.5,5z"/>
    <path d="M26.5,30h-4c-0.3,0-0.5-0.2-0.5-0.5V28h0.5c0.3,0,0.5-0.2,0.5-0.5V26h0.5c0.8,0,1.5-0.7,1.5-1.5v-22C25,1.7,24.3,1,23.5,1   h-15C7.7,1,7,1.7,7,2.5v22C7,25.3,7.7,26,8.5,26H9v1.5C9,27.8,9.2,28,9.5,28H10v1.5c0,0.3-0.2,0.5-0.5,0.5h-4C5.2,30,5,30.2,5,30.5   S5.2,31,5.5,31h4c0.8,0,1.5-0.7,1.5-1.5V28h0.5c0.3,0,0.5-0.2,0.5-0.5V26h8v1.5c0,0.3,0.2,0.5,0.5,0.5H21v1.5   c0,0.8,0.7,1.5,1.5,1.5h4c0.3,0,0.5-0.2,0.5-0.5S26.8,30,26.5,30z M11,27h-1v-1h1V27z M20.5,25h-9h-2h-1C8.2,25,8,24.8,8,24.5v-22   C8,2.2,8.2,2,8.5,2h15C23.8,2,24,2.2,24,2.5v22c0,0.3-0.2,0.5-0.5,0.5h-1H20.5z M21,27v-1h1v1H21z"/>
    <path d="M16,16.5c-1.4,0-2.5,1.1-2.5,2.5s1.1,2.5,2.5,2.5s2.5-1.1,2.5-2.5S17.4,16.5,16,16.5z M16,20.5c-0.8,0-1.5-0.7-1.5-1.5   c0-0.7,0.4-1.2,1-1.4V18c0,0.3,0.2,0.5,0.5,0.5s0.5-0.2,0.5-0.5v-0.4c0.6,0.2,1,0.8,1,1.4C17.5,19.8,16.8,20.5,16,20.5z"/>
  </g>
  <path d="M 31.235 169.259 C 36.104 169.259 40.058 165.303 40.058 160.438 C 40.058 157.868 38.992 155.62 36.983 153.796 C 36.609 153.457 36.526 153.271 36.526 152.765 L 36.561 137.59 C 36.561 134.058 34.412 131.708 31.235 131.708 C 28.041 131.708 25.897 134.058 25.897 137.59 L 25.913 152.765 C 25.913 153.271 25.829 153.457 25.472 153.796 C 23.447 155.62 22.397 157.868 22.397 160.438 C 22.397 165.303 26.335 169.259 31.235 169.259 Z M 31.235 166.809 C 27.719 166.809 24.864 163.933 24.864 160.438 C 24.864 158.323 25.863 156.413 27.652 155.214 C 28.178 154.859 28.38 154.54 28.38 153.846 L 28.38 137.69 C 28.38 135.562 29.546 134.191 31.235 134.191 C 32.907 134.191 34.056 135.562 34.056 137.69 L 34.056 153.846 C 34.056 154.54 34.262 154.859 34.784 155.214 C 36.577 156.413 37.572 158.323 37.572 160.438 C 37.572 163.933 34.732 166.809 31.235 166.809 Z M 31.219 164.527 C 33.483 164.527 35.309 162.701 35.309 160.417 C 35.309 158.83 34.412 157.53 33.112 156.819 C 32.572 156.533 32.385 156.33 32.385 155.501 L 32.385 146.528 C 32.385 145.65 31.879 145.128 31.219 145.128 C 30.578 145.128 30.051 145.65 30.051 146.528 L 30.051 155.501 C 30.051 156.33 29.868 156.533 29.328 156.819 C 28.024 157.53 27.13 158.83 27.13 160.417 C 27.13 162.701 28.956 164.527 31.219 164.527 Z" style=""/>
  <path d="M 43.081 166.015 C 43.749 166.571 44.418 167.128 45.865 167.128 C 48.649 167.128 48.649 164.9 51.435 164.9 C 52.882 164.9 53.551 165.457 54.219 166.015 C 54.887 166.571 55.556 167.128 57.003 167.128 C 59.788 167.128 59.788 164.9 62.573 164.9 C 64.02 164.9 64.689 165.457 65.357 166.015 M 43.081 159.332 C 43.749 159.889 44.418 160.445 45.865 160.445 C 48.649 160.445 48.649 158.218 51.435 158.218 C 52.882 158.218 53.551 158.774 54.219 159.332 C 54.887 159.889 55.556 160.445 57.003 160.445 C 59.788 160.445 59.788 158.218 62.573 158.218 C 64.02 158.218 64.689 158.774 65.357 159.332" stroke="#000000" stroke-width="2" stroke-linecap="round" stroke-linejoin="round" style=""/>
</svg>