<?xml version="1.0" encoding="utf-8"?>
<svg viewBox="6.5737 6.4994 126.11 171.9682" xmlns="http://www.w3.org/2000/svg">
  <g transform="matrix(5.732272148132324, 0, 0, 5.732272148132324, -22.087657928466797, 0.7671329975128174)" style="">
    <path d="M14.5,5h3C17.8,5,18,4.8,18,4.5S17.8,4,17.5,4h-3C14.2,4,14,4.2,14,4.5S14.2,5,14.5,5z"/>
    <path d="M26.5,30h-4c-0.3,0-0.5-0.2-0.5-0.5V28h0.5c0.3,0,0.5-0.2,0.5-0.5V26h0.5c0.8,0,1.5-0.7,1.5-1.5v-22C25,1.7,24.3,1,23.5,1   h-15C7.7,1,7,1.7,7,2.5v22C7,25.3,7.7,26,8.5,26H9v1.5C9,27.8,9.2,28,9.5,28H10v1.5c0,0.3-0.2,0.5-0.5,0.5h-4C5.2,30,5,30.2,5,30.5   S5.2,31,5.5,31h4c0.8,0,1.5-0.7,1.5-1.5V28h0.5c0.3,0,0.5-0.2,0.5-0.5V26h8v1.5c0,0.3,0.2,0.5,0.5,0.5H21v1.5   c0,0.8,0.7,1.5,1.5,1.5h4c0.3,0,0.5-0.2,0.5-0.5S26.8,30,26.5,30z M11,27h-1v-1h1V27z M20.5,25h-9h-2h-1C8.2,25,8,24.8,8,24.5v-22   C8,2.2,8.2,2,8.5,2h15C23.8,2,24,2.2,24,2.5v22c0,0.3-0.2,0.5-0.5,0.5h-1H20.5z M21,27v-1h1v1H21z"/>
    <path d="M16,16.5c-1.4,0-2.5,1.1-2.5,2.5s1.1,2.5,2.5,2.5s2.5-1.1,2.5-2.5S17.4,16.5,16,16.5z M16,20.5c-0.8,0-1.5-0.7-1.5-1.5   c0-0.7,0.4-1.2,1-1.4V18c0,0.3,0.2,0.5,0.5,0.5s0.5-0.2,0.5-0.5v-0.4c0.6,0.2,1,0.8,1,1.4C17.5,19.8,16.8,20.5,16,20.5z"/>
  </g>
  <path d="M 83.03 68.72 C 83.03 76.15 78.458 79.411 74.925 80.509 C 74.173 80.745 73.677 79.867 74.128 79.219 C 75.664 77.009 77.442 73.637 77.442 70.466 C 77.442 67.061 74.571 63.039 72.329 60.56 C 71.817 59.992 70.924 60.368 70.895 61.13 C 70.803 63.661 70.403 67.047 68.681 69.701 C 68.403 70.127 67.815 70.164 67.499 69.764 C 66.961 69.083 66.424 68.243 65.885 67.58 C 65.595 67.222 65.071 67.217 64.738 67.532 C 63.433 68.767 61.611 70.692 61.611 73.086 C 61.611 74.71 62.239 76.413 62.948 77.783 C 63.339 78.535 62.645 79.442 61.894 79.049 C 58.78 77.414 55.09 74.106 55.09 68.72 C 55.09 63.226 62.617 55.614 65.491 48.424 C 65.945 47.29 67.342 46.756 68.314 47.496 C 74.201 51.98 83.03 60.65 83.03 68.72 Z" style=""/>
</svg>