<?xml version="1.0" encoding="utf-8"?>
<svg viewBox="5.3457 5.0424 150.5013 171.9682" xmlns="http://www.w3.org/2000/svg">
  <g transform="matrix(5.732272148132324, 0, 0, 5.732272148132324, -23.315641403198242, -0.6898900270462036)" style="">
    <path d="M14.5,5h3C17.8,5,18,4.8,18,4.5S17.8,4,17.5,4h-3C14.2,4,14,4.2,14,4.5S14.2,5,14.5,5z"/>
    <path d="M26.5,30h-4c-0.3,0-0.5-0.2-0.5-0.5V28h0.5c0.3,0,0.5-0.2,0.5-0.5V26h0.5c0.8,0,1.5-0.7,1.5-1.5v-22C25,1.7,24.3,1,23.5,1   h-15C7.7,1,7,1.7,7,2.5v22C7,25.3,7.7,26,8.5,26H9v1.5C9,27.8,9.2,28,9.5,28H10v1.5c0,0.3-0.2,0.5-0.5,0.5h-4C5.2,30,5,30.2,5,30.5   S5.2,31,5.5,31h4c0.8,0,1.5-0.7,1.5-1.5V28h0.5c0.3,0,0.5-0.2,0.5-0.5V26h8v1.5c0,0.3,0.2,0.5,0.5,0.5H21v1.5   c0,0.8,0.7,1.5,1.5,1.5h4c0.3,0,0.5-0.2,0.5-0.5S26.8,30,26.5,30z M11,27h-1v-1h1V27z M20.5,25h-9h-2h-1C8.2,25,8,24.8,8,24.5v-22   C8,2.2,8.2,2,8.5,2h15C23.8,2,24,2.2,24,2.5v22c0,0.3-0.2,0.5-0.5,0.5h-1H20.5z M21,27v-1h1v1H21z"/>
    <path d="M16,16.5c-1.4,0-2.5,1.1-2.5,2.5s1.1,2.5,2.5,2.5s2.5-1.1,2.5-2.5S17.4,16.5,16,16.5z M16,20.5c-0.8,0-1.5-0.7-1.5-1.5   c0-0.7,0.4-1.2,1-1.4V18c0,0.3,0.2,0.5,0.5,0.5s0.5-0.2,0.5-0.5v-0.4c0.6,0.2,1,0.8,1,1.4C17.5,19.8,16.8,20.5,16,20.5z"/>
  </g>
  <path d="M 147.024 168.093 C 151.893 168.093 155.847 164.137 155.847 159.272 C 155.847 156.702 154.781 154.454 152.772 152.63 C 152.398 152.291 152.315 152.105 152.315 151.599 L 152.35 136.424 C 152.35 132.892 150.201 130.542 147.024 130.542 C 143.83 130.542 141.686 132.892 141.686 136.424 L 141.702 151.599 C 141.702 152.105 141.618 152.291 141.261 152.63 C 139.236 154.454 138.186 156.702 138.186 159.272 C 138.186 164.137 142.124 168.093 147.024 168.093 Z M 147.024 165.643 C 143.508 165.643 140.653 162.767 140.653 159.272 C 140.653 157.157 141.652 155.247 143.441 154.048 C 143.967 153.693 144.169 153.374 144.169 152.68 L 144.169 136.524 C 144.169 134.396 145.335 133.025 147.024 133.025 C 148.696 133.025 149.845 134.396 149.845 136.524 L 149.845 152.68 C 149.845 153.374 150.051 153.693 150.573 154.048 C 152.366 155.247 153.361 157.157 153.361 159.272 C 153.361 162.767 150.521 165.643 147.024 165.643 Z M 147.008 163.361 C 149.272 163.361 151.098 161.535 151.098 159.251 C 151.098 157.664 150.201 156.364 148.901 155.653 C 148.361 155.367 148.174 155.164 148.174 154.335 L 148.174 145.362 C 148.174 144.484 147.668 143.962 147.008 143.962 C 146.367 143.962 145.84 144.484 145.84 145.362 L 145.84 154.335 C 145.84 155.164 145.657 155.367 145.117 155.653 C 143.813 156.364 142.919 157.664 142.919 159.251 C 142.919 161.535 144.745 163.361 147.008 163.361 Z" style=""/>
  <path d="M 111.87 164.849 C 112.538 165.405 113.207 165.962 114.654 165.962 C 117.438 165.962 117.438 163.734 120.224 163.734 C 121.671 163.734 122.34 164.291 123.008 164.849 C 123.676 165.405 124.345 165.962 125.792 165.962 C 128.577 165.962 128.577 163.734 131.362 163.734 C 132.809 163.734 133.478 164.291 134.146 164.849 M 111.87 158.166 C 112.538 158.723 113.207 159.279 114.654 159.279 C 117.438 159.279 117.438 157.052 120.224 157.052 C 121.671 157.052 122.34 157.608 123.008 158.166 C 123.676 158.723 124.345 159.279 125.792 159.279 C 128.577 159.279 128.577 157.052 131.362 157.052 C 132.809 157.052 133.478 157.608 134.146 158.166" stroke="#000000" stroke-width="2" stroke-linecap="round" stroke-linejoin="round" style=""/>
</svg>