<?xml version="1.0" encoding="utf-8"?>
<svg viewBox="3.4905 3.3278 233.5218 282.0863" xmlns="http://www.w3.org/2000/svg">
  <g>
    <g transform="matrix(1, 0, 0, 1, -17.260477, 3.328529)">
      <g>
        <path d="M 252.239 94.812 L 252.239 130.016 C 252.239 133.971 249.028 137.184 245.071 137.184 L 229.893 137.184 L 229.893 198.22 C 225.553 195.611 220.718 193.742 215.563 192.786 L 215.563 116.458 C 215.563 108.474 209.071 101.98 201.09 101.98 C 193.109 101.98 186.613 108.475 186.613 116.458 L 186.613 197.492 C 180.921 200.658 176.017 205.071 172.271 210.362 L 172.271 116.458 C 172.271 108.474 165.774 101.98 157.794 101.98 C 149.812 101.98 143.316 108.475 143.316 116.458 L 143.316 244.173 C 143.316 252.158 149.813 258.65 157.794 258.65 C 162.033 258.65 165.852 256.819 168.503 253.905 C 170.6 258.318 173.422 262.321 176.815 265.758 C 171.738 270.246 165.08 272.986 157.787 272.986 C 149.162 272.986 141.428 269.154 136.143 263.129 C 130.857 269.154 123.126 272.986 114.499 272.986 C 105.872 272.986 98.141 269.154 92.855 263.129 C 87.569 269.154 79.836 272.986 71.209 272.986 C 55.325 272.986 42.397 260.059 42.397 244.172 L 42.397 137.179 L 27.919 137.179 C 23.964 137.179 20.751 133.966 20.751 130.01 C 20.751 126.053 23.964 122.842 27.919 122.842 L 42.408 122.842 L 42.408 116.453 C 42.408 100.567 55.335 87.639 71.22 87.639 C 79.847 87.639 87.58 91.473 92.866 97.498 C 98.152 91.473 105.885 87.639 114.51 87.639 C 123.137 87.639 130.868 91.473 136.156 97.498 C 141.44 91.473 149.173 87.639 157.802 87.639 C 166.427 87.639 174.156 91.473 179.444 97.498 C 184.733 91.473 192.461 87.639 201.09 87.639 C 216.973 87.639 229.901 100.566 229.901 116.453 L 229.901 122.842 L 237.914 122.842 L 237.914 94.807 C 237.914 90.852 241.125 87.639 245.083 87.639 C 249.036 87.639 252.252 90.852 252.239 94.812 Z M 128.982 116.458 C 128.982 108.474 122.488 101.98 114.507 101.98 C 106.527 101.98 100.032 108.475 100.032 116.458 L 100.032 244.173 C 100.032 252.158 106.527 258.65 114.507 258.65 C 122.488 258.65 128.982 252.157 128.982 244.173 Z M 85.69 116.458 C 85.69 108.474 79.193 101.98 71.213 101.98 C 63.232 101.98 56.738 108.475 56.738 116.458 L 56.738 244.173 C 56.738 252.158 63.232 258.65 71.213 258.65 C 79.193 258.65 85.69 252.157 85.69 244.173 Z"/>
        <path d="M88.472,2.404c-6.461,7.708-9.12,15.87-5.918,25.669c3.16,9.667,12.865,18.533,5.12,28.493 c-5.603,7.201,4.467,17.429,10.135,10.137c6.38-8.203,9.138-16.57,5.918-26.75c-2.905-9.185-12.846-18.197-5.12-27.412 C104.506,5.505,94.42-4.692,88.472,2.404z"/>
        <path d="M140.825,66.702c6.385-8.203,9.138-16.57,5.918-26.75c-2.903-9.185-12.847-18.197-5.12-27.412 c5.899-7.036-4.191-17.233-10.135-10.137c-6.461,7.708-9.119,15.87-5.917,25.669c3.16,9.667,12.865,18.533,5.12,28.493 C125.083,63.767,135.152,73.994,140.825,66.702z"/>
        <path d="M174.493,2.404c-6.459,7.708-9.119,15.87-5.918,25.669c3.164,9.667,12.867,18.533,5.125,28.493 c-5.605,7.201,4.462,17.429,10.132,10.137c6.38-8.203,9.139-16.57,5.918-26.75c-2.907-9.185-12.849-18.197-5.12-27.412 C190.529,5.505,180.444-4.692,174.493,2.404z"/>
      </g>
    </g>
    <g transform="matrix(1.016705, 0, 0, 1.016705, 140.425339, -779.444214)" style="fill:#ffffff">
      <path style="font-size: medium; font-style: normal; font-variant: normal; font-weight: normal; font-stretch: normal; text-indent: 0px; text-align: start; text-decoration: none; line-height: normal; letter-spacing: normal; word-spacing: normal; text-transform: none; direction: ltr; writing-mode: lr-tb; text-anchor: start; baseline-shift: baseline; opacity: 1; color: rgb(0, 0, 0); stroke: none; stroke-width: 6; marker: none; visibility: visible; display: inline; overflow: visible; font-family: Sans; fill-rule: nonzero; paint-order: fill; fill: rgb(0, 0, 0);" d="M 50 5 C 25.182725 5 5 25.1827 5 50 C 5 74.8173 25.182725 95 50 95 C 74.817275 95 95 74.8173 95 50 C 95 25.1827 74.817275 5 50 5 z M 50 11 C 71.574644 11 89 28.42534 89 50 C 89 71.5746 71.574644 89 50 89 C 28.425356 89 11 71.5746 11 50 C 11 28.42534 28.425356 11 50 11 z M 73.90625 29.96875 A 3.0003 3.0003 0 0 0 71.84375 30.90625 L 40.90625 62.78125 L 28.0625 50.78125 A 3.0179092 3.0179092 0 1 0 23.9375 55.1875 L 38.9375 69.1875 A 3.0003 3.0003 0 0 0 43.15625 69.0625 L 76.15625 35.0625 A 3.0003 3.0003 0 0 0 73.90625 29.96875 z " transform="translate(0,952.36218)"/>
    </g>
  </g>
</svg>