<?xml version="1.0" encoding="utf-8"?>
<svg viewBox="29.453 3.019 70 30" xmlns="http://www.w3.org/2000/svg">
  <path d="M 29.453 3.019 L 99.453 3.019 L 99.453 5.019 L 29.453 5.019 L 29.453 3.019 Z" fill="black" transform="matrix(1, 0, 0, 1, 0, 3.552713678800501e-15)"/>
  <path d="M 66.312 16.26 C 64.089 14.355 60.815 14.332 58.566 16.206 L 56.013 18.333 C 54.53 19.57 52.375 19.57 50.892 18.333 L 48.387 16.246 C 46.113 14.351 42.796 14.397 40.576 16.356 L 39.825 17.019 L 35.453 17.019 C 34.9 17.019 34.453 17.467 34.453 18.019 C 34.453 18.571 34.9 19.019 35.453 19.019 L 40.581 19.019 L 41.899 17.856 C 43.379 16.55 45.59 16.519 47.106 17.782 L 49.612 19.87 C 51.837 21.724 55.069 21.724 57.294 19.87 L 59.847 17.743 C 61.346 16.493 63.528 16.508 65.01 17.779 L 67.298 19.739 C 69.545 21.665 72.861 21.665 75.107 19.739 L 77.35 17.818 C 78.848 16.534 81.058 16.534 82.556 17.818 L 83.958 19.019 L 89.453 19.019 L 89.453 23.019 L 96.453 18.019 L 89.453 13.019 L 89.453 17.019 L 84.698 17.019 L 83.857 16.299 C 81.611 14.373 78.295 14.373 76.048 16.299 L 73.806 18.221 C 72.308 19.505 70.098 19.505 68.6 18.221 L 66.312 16.26 Z" fill="black" transform="matrix(1, 0, 0, 1, 0, 3.552713678800501e-15)"/>
  <path d="M 99.453 31.019 L 29.453 31.019 L 29.453 33.019 L 99.453 33.019 L 99.453 31.019 Z" fill="black" transform="matrix(1, 0, 0, 1, 0, 3.552713678800501e-15)"/>
</svg>