<?xml version="1.0" encoding="utf-8"?>
<svg viewBox="10.134 7.12 82.142 36.341" xmlns="http://www.w3.org/2000/svg">
  <path d="M 10.134 13.461 L 80.134 13.461 L 80.134 15.461 L 10.134 15.461 L 10.134 13.461 Z" fill="black" transform="matrix(1, 0, 0, 1, 0, 3.552713678800501e-15)"/>
  <path d="M 46.993 26.702 C 44.77 24.797 41.496 24.774 39.247 26.648 L 36.694 28.775 C 35.211 30.012 33.056 30.012 31.573 28.775 L 29.068 26.688 C 26.794 24.793 23.477 24.839 21.257 26.798 L 20.506 27.461 L 16.134 27.461 C 15.581 27.461 15.134 27.909 15.134 28.461 C 15.134 29.013 15.581 29.461 16.134 29.461 L 21.262 29.461 L 22.58 28.298 C 24.06 26.992 26.271 26.961 27.787 28.224 L 30.293 30.312 C 32.518 32.166 35.75 32.166 37.975 30.312 L 40.528 28.185 C 42.027 26.935 44.209 26.95 45.691 28.221 L 47.979 30.181 C 50.226 32.107 53.542 32.107 55.788 30.181 L 58.031 28.26 C 59.529 26.976 61.739 26.976 63.237 28.26 L 64.639 29.461 L 70.134 29.461 L 70.134 33.461 L 77.134 28.461 L 70.134 23.461 L 70.134 27.461 L 65.379 27.461 L 64.538 26.741 C 62.292 24.815 58.976 24.815 56.729 26.741 L 54.487 28.663 C 52.989 29.947 50.779 29.947 49.281 28.663 L 46.993 26.702 Z" fill="black" transform="matrix(1, 0, 0, 1, 0, 3.552713678800501e-15)"/>
  <path d="M 80.134 41.461 L 10.134 41.461 L 10.134 43.461 L 80.134 43.461 L 80.134 41.461 Z" fill="black" transform="matrix(1, 0, 0, 1, 0, 3.552713678800501e-15)"/>
  <path d="M 86.773 30.543 C 89.81 30.543 92.276 28.075 92.276 25.04 C 92.276 23.437 91.611 22.035 90.358 20.897 C 90.125 20.686 90.073 20.57 90.073 20.254 L 90.095 10.789 C 90.095 8.586 88.754 7.12 86.773 7.12 C 84.78 7.12 83.443 8.586 83.443 10.789 L 83.453 20.254 C 83.453 20.57 83.401 20.686 83.178 20.897 C 81.915 22.035 81.26 23.437 81.26 25.04 C 81.26 28.075 83.716 30.543 86.773 30.543 Z M 86.773 29.014 C 84.58 29.014 82.799 27.22 82.799 25.04 C 82.799 23.721 83.422 22.53 84.538 21.782 C 84.866 21.56 84.992 21.362 84.992 20.929 L 84.992 10.851 C 84.992 9.524 85.719 8.669 86.773 8.669 C 87.816 8.669 88.532 9.524 88.532 10.851 L 88.532 20.929 C 88.532 21.362 88.661 21.56 88.986 21.782 C 90.105 22.53 90.725 23.721 90.725 25.04 C 90.725 27.22 88.954 29.014 86.773 29.014 Z M 86.763 27.591 C 88.175 27.591 89.314 26.452 89.314 25.027 C 89.314 24.037 88.754 23.227 87.944 22.783 C 87.607 22.605 87.49 22.478 87.49 21.961 L 87.49 16.364 C 87.49 15.816 87.174 15.491 86.763 15.491 C 86.363 15.491 86.034 15.816 86.034 16.364 L 86.034 21.961 C 86.034 22.478 85.92 22.605 85.583 22.783 C 84.77 23.227 84.212 24.037 84.212 25.027 C 84.212 26.452 85.351 27.591 86.763 27.591 Z" style="" transform="matrix(1, 0, 0, 1, 0, 3.552713678800501e-15)"/>
</svg>