<?xml version="1.0" encoding="utf-8"?>
<svg viewBox="2.319 8.3819 78.8313 45.131" xmlns="http://www.w3.org/2000/svg">
  <g style="" transform="matrix(0.6268190145492554, 0, 0, 0.6268190145492554, 16.931415557861328, 3.4030330181121826)">
    <path d="M 94.454 11.943 C 96.659 11.943 98.452 13.736 98.452 15.941 L 98.452 71.945 C 98.452 74.149 96.659 75.943 94.454 75.943 L 20.45 75.943 C 18.245 75.943 16.452 74.149 16.452 71.945 L 16.452 15.941 C 16.452 13.736 18.245 11.943 20.45 11.943 L 94.454 11.943 M 94.454 7.943 L 20.45 7.943 C 16.051 7.943 12.452 11.542 12.452 15.941 L 12.452 71.945 C 12.452 76.344 16.051 79.943 20.45 79.943 L 94.454 79.943 C 98.852 79.943 102.452 76.344 102.452 71.945 L 102.452 15.941 C 102.452 11.542 98.852 7.943 94.454 7.943 Z"/>
    <path d="M 45.452 24.943 C 55.929 24.943 64.452 33.466 64.452 43.943 C 64.452 54.421 55.929 62.943 45.452 62.943 C 34.975 62.943 26.452 54.421 26.452 43.944 C 26.452 33.467 34.976 24.943 45.452 24.943 M 45.452 20.943 C 32.748 20.943 22.452 31.239 22.452 43.943 C 22.452 56.648 32.749 66.943 45.452 66.943 C 58.156 66.943 68.452 56.648 68.452 43.944 C 68.452 31.239 58.157 20.943 45.452 20.943 Z"/>
    <path d="M 51.014 43.198 C 50.32 43.198 49.604 43.246 48.882 43.321 C 48.733 42.515 48.315 41.806 47.715 41.293 C 52.408 34.811 52.456 27.109 45.453 27.109 C 38.45 27.109 38.498 34.811 43.191 41.293 C 42.591 41.806 42.173 42.515 42.024 43.321 C 41.302 43.246 40.587 43.198 39.893 43.198 C 32.934 43.198 27.692 46.848 30.874 52.36 C 32.076 54.442 33.648 55.35 35.328 55.35 C 38.539 55.35 42.138 52.024 44.284 47.228 C 44.651 47.36 45.041 47.444 45.453 47.444 C 45.866 47.444 46.255 47.36 46.622 47.228 C 48.768 52.024 52.366 55.351 55.578 55.351 C 57.257 55.351 58.83 54.442 60.032 52.361 C 63.214 46.848 57.973 43.198 51.014 43.198 Z M 35.327 51.35 C 34.939 51.35 34.471 50.592 34.337 50.36 C 34.203 50.128 33.781 49.344 33.974 49.008 C 34.405 48.263 36.498 47.215 39.813 47.197 C 38.221 49.911 36.271 51.35 35.327 51.35 Z M 45.452 37.443 C 44.003 34.911 43.619 32.613 44.049 31.575 C 44.102 31.448 44.242 31.109 45.452 31.109 C 46.662 31.109 46.802 31.447 46.855 31.575 C 47.285 32.613 46.902 34.911 45.452 37.443 Z M 56.567 50.361 C 56.433 50.593 55.965 51.351 55.578 51.351 C 54.635 51.351 52.684 49.911 51.091 47.198 C 54.406 47.215 56.499 48.262 56.93 49.009 C 57.124 49.344 56.702 50.129 56.567 50.361 Z"/>
    <path d="M 90.452 25.943 L 75.452 25.943 C 74.348 25.943 73.452 25.047 73.452 23.943 C 73.452 22.839 74.348 21.943 75.452 21.943 L 90.452 21.943 C 91.557 21.943 92.452 22.839 92.452 23.943 C 92.452 25.047 91.557 25.943 90.452 25.943 Z"/>
    <path d="M 90.452 36.068 L 75.452 36.068 C 74.348 36.068 73.452 35.172 73.452 34.068 C 73.452 32.964 74.348 32.068 75.452 32.068 L 90.452 32.068 C 91.557 32.068 92.452 32.964 92.452 34.068 C 92.452 35.172 91.557 36.068 90.452 36.068 Z"/>
    <path d="M 90.452 45.943 L 75.452 45.943 C 74.348 45.943 73.452 45.047 73.452 43.943 C 73.452 42.838 74.348 41.943 75.452 41.943 L 90.452 41.943 C 91.557 41.943 92.452 42.838 92.452 43.943 C 92.452 45.047 91.557 45.943 90.452 45.943 Z"/>
    <path d="M 90.452 55.943 L 75.452 55.943 C 74.348 55.943 73.452 55.047 73.452 53.943 C 73.452 52.838 74.348 51.943 75.452 51.943 L 90.452 51.943 C 91.557 51.943 92.452 52.838 92.452 53.943 C 92.452 55.047 91.557 55.943 90.452 55.943 Z"/>
    <path d="M 90.452 65.943 L 75.452 65.943 C 74.348 65.943 73.452 65.047 73.452 63.943 C 73.452 62.838 74.348 61.943 75.452 61.943 L 90.452 61.943 C 91.557 61.943 92.452 62.838 92.452 63.943 C 92.452 65.047 91.557 65.943 90.452 65.943 Z"/>
  </g>
  <path d="M 4.974 40.146 C 6.436 40.146 7.624 38.958 7.624 37.496 C 7.624 36.724 7.303 36.05 6.7 35.502 C 6.587 35.4 6.563 35.344 6.563 35.192 L 6.573 30.635 C 6.573 29.574 5.929 28.869 4.974 28.869 C 4.015 28.869 3.37 29.574 3.37 30.635 L 3.376 35.192 C 3.376 35.344 3.35 35.4 3.243 35.502 C 2.634 36.05 2.319 36.724 2.319 37.496 C 2.319 38.958 3.502 40.146 4.974 40.146 Z M 4.974 39.41 C 3.917 39.41 3.06 38.547 3.06 37.496 C 3.06 36.861 3.361 36.288 3.897 35.928 C 4.055 35.822 4.116 35.725 4.116 35.517 L 4.116 30.666 C 4.116 30.027 4.466 29.615 4.974 29.615 C 5.476 29.615 5.82 30.027 5.82 30.666 L 5.82 35.517 C 5.82 35.725 5.883 35.822 6.039 35.928 C 6.577 36.288 6.877 36.861 6.877 37.496 C 6.877 38.547 6.024 39.41 4.974 39.41 Z M 4.97 38.725 C 5.648 38.725 6.197 38.177 6.197 37.49 C 6.197 37.013 5.929 36.622 5.538 36.409 C 5.375 36.324 5.318 36.263 5.318 36.014 L 5.318 33.319 C 5.318 33.055 5.166 32.899 4.97 32.899 C 4.776 32.899 4.617 33.055 4.617 33.319 L 4.617 36.014 C 4.617 36.263 4.563 36.324 4.4 36.409 C 4.009 36.622 3.741 37.013 3.741 37.49 C 3.741 38.177 4.289 38.725 4.97 38.725 Z" style=""/>
  <path d="M 9.013 36.782 C 9.425 37.125 9.839 37.469 10.732 37.469 C 12.451 37.469 12.451 36.094 14.171 36.094 C 15.065 36.094 15.478 36.438 15.89 36.782 C 16.303 37.125 16.716 37.469 17.609 37.469 C 19.329 37.469 19.329 36.094 21.048 36.094 C 21.942 36.094 22.355 36.438 22.767 36.782 M 9.013 32.656 C 9.425 33 9.839 33.343 10.732 33.343 C 12.451 33.343 12.451 31.968 14.171 31.968 C 15.065 31.968 15.478 32.311 15.89 32.656 C 16.303 33 16.716 33.343 17.609 33.343 C 19.329 33.343 19.329 31.968 21.048 31.968 C 21.942 31.968 22.355 32.311 22.767 32.656" stroke="#000000" stroke-width="2" stroke-linecap="round" stroke-linejoin="round" style=""/>
  <path d="M 17.74 29.118 C 17.549 29.308 17.549 29.616 17.74 29.805 C 17.928 29.995 18.236 29.995 18.426 29.805 L 20.69 27.541 C 21.069 27.162 21.069 26.547 20.69 26.168 L 18.424 23.903 C 18.234 23.712 17.927 23.712 17.738 23.903 C 17.548 24.091 17.548 24.399 17.738 24.589 L 19.518 26.367 L 10.792 26.367 C 10.523 26.367 10.306 26.585 10.306 26.853 C 10.306 27.12 10.523 27.339 10.792 27.339 L 19.519 27.339 L 17.74 29.118 Z" fill="#0F0F0F" style=""/>
</svg>