<?xml version="1.0" encoding="utf-8"?>
<svg viewBox="139.071 58.363 63.947 51.799" xmlns="http://www.w3.org/2000/svg">
  <path d="M 159.756 69.019 C 166.323 69.019 171.666 74.361 171.666 80.929 C 171.666 87.496 166.323 92.838 159.756 92.838 C 153.189 92.838 147.847 87.496 147.847 80.929 C 147.847 74.362 153.19 69.019 159.756 69.019 M 159.756 66.512 C 151.793 66.512 145.339 72.966 145.339 80.929 C 145.339 88.892 151.794 95.345 159.756 95.345 C 167.719 95.345 174.173 88.892 174.173 80.929 C 174.173 72.966 167.72 66.512 159.756 66.512 Z"/>
  <path d="M 163.243 80.462 C 162.808 80.462 162.359 80.492 161.906 80.539 C 161.813 80.034 161.551 79.589 161.175 79.268 C 164.116 75.205 164.146 70.377 159.757 70.377 C 155.367 70.377 155.397 75.205 158.339 79.268 C 157.963 79.589 157.701 80.034 157.607 80.539 C 157.155 80.492 156.707 80.462 156.272 80.462 C 151.91 80.462 148.624 82.75 150.618 86.205 C 151.372 87.51 152.357 88.079 153.41 88.079 C 155.423 88.079 157.679 85.994 159.024 82.988 C 159.254 83.07 159.499 83.123 159.757 83.123 C 160.016 83.123 160.26 83.07 160.49 82.988 C 161.835 85.994 164.09 88.079 166.103 88.079 C 167.156 88.079 168.142 87.51 168.895 86.205 C 170.89 82.75 167.605 80.462 163.243 80.462 Z M 153.41 85.572 C 153.166 85.572 152.873 85.096 152.789 84.951 C 152.705 84.806 152.441 84.314 152.562 84.103 C 152.832 83.637 154.144 82.98 156.222 82.968 C 155.224 84.67 154.001 85.572 153.41 85.572 Z M 159.756 76.854 C 158.848 75.267 158.607 73.827 158.877 73.176 C 158.91 73.097 158.998 72.884 159.756 72.884 C 160.515 72.884 160.602 73.096 160.636 73.176 C 160.905 73.827 160.665 75.267 159.756 76.854 Z M 166.723 84.952 C 166.639 85.097 166.346 85.572 166.103 85.572 C 165.512 85.572 164.289 84.67 163.291 82.969 C 165.369 82.98 166.681 83.636 166.951 84.104 C 167.072 84.314 166.808 84.806 166.723 84.952 Z"/>
  <path d="M 187.963 69.646 L 178.561 69.646 C 177.869 69.646 177.307 69.084 177.307 68.392 C 177.307 67.7 177.869 67.139 178.561 67.139 L 187.963 67.139 C 188.656 67.139 189.217 67.7 189.217 68.392 C 189.217 69.084 188.656 69.646 187.963 69.646 Z"/>
  <path d="M 187.963 75.992 L 178.561 75.992 C 177.869 75.992 177.307 75.431 177.307 74.739 C 177.307 74.047 177.869 73.485 178.561 73.485 L 187.963 73.485 C 188.656 73.485 189.217 74.047 189.217 74.739 C 189.217 75.431 188.656 75.992 187.963 75.992 Z"/>
  <path d="M 187.963 82.182 L 178.561 82.182 C 177.869 82.182 177.307 81.621 177.307 80.929 C 177.307 80.236 177.869 79.675 178.561 79.675 L 187.963 79.675 C 188.656 79.675 189.217 80.236 189.217 80.929 C 189.217 81.621 188.656 82.182 187.963 82.182 Z"/>
  <path d="M 190.472 60.87 C 190.645 60.87 190.814 60.887 190.977 60.921 C 191.14 60.954 191.297 61.004 191.447 61.067 C 191.597 61.131 191.74 61.208 191.873 61.299 C 192.006 61.389 192.13 61.491 192.243 61.605 C 192.356 61.719 192.459 61.842 192.55 61.976 C 192.64 62.109 192.718 62.251 192.781 62.401 C 192.845 62.551 192.894 62.709 192.927 62.872 C 192.961 63.035 192.978 63.203 192.978 63.376 L 192.978 66.393 L 192.978 69.411 L 192.978 72.428 L 192.978 75.445 L 192.978 78.462 L 192.978 81.479 L 192.978 84.496 L 192.978 87.514 C 192.978 87.686 191.546 87.493 189.983 87.423 C 188.42 87.353 186.726 87.406 186.202 88.07 C 185.679 88.734 185.142 89.084 184.554 89.468 C 183.967 89.852 183.329 90.27 182.602 91.069 C 181.875 91.868 181.634 92.799 181.422 93.675 C 181.21 94.551 181.027 95.371 180.417 95.949 C 179.807 96.526 179.953 97.786 180.209 98.901 C 180.465 100.016 180.83 100.987 180.657 100.987 L 176.086 100.987 L 171.514 100.987 L 166.943 100.987 L 162.371 100.987 L 157.8 100.987 L 153.228 100.987 L 148.657 100.987 L 144.085 100.987 C 143.912 100.987 143.743 100.969 143.58 100.936 C 143.417 100.903 143.26 100.853 143.11 100.79 C 142.96 100.727 142.818 100.649 142.684 100.559 C 142.551 100.468 142.426 100.366 142.313 100.252 C 142.199 100.139 142.097 100.014 142.006 99.881 C 141.916 99.748 141.838 99.605 141.775 99.455 C 141.711 99.306 141.662 99.149 141.629 98.986 C 141.595 98.823 141.578 98.654 141.578 98.481 L 141.578 94.093 L 141.578 89.705 L 141.578 85.317 L 141.578 80.929 L 141.578 76.541 L 141.578 72.153 L 141.578 67.765 L 141.578 63.376 C 141.578 63.204 141.595 63.035 141.629 62.872 C 141.662 62.709 141.711 62.552 141.775 62.402 C 141.838 62.252 141.916 62.11 142.006 61.976 C 142.097 61.843 142.199 61.719 142.313 61.605 C 142.426 61.492 142.551 61.389 142.684 61.299 C 142.818 61.208 142.96 61.131 143.11 61.067 C 143.26 61.004 143.418 60.954 143.581 60.921 C 143.744 60.888 143.913 60.87 144.085 60.87 L 149.884 60.87 L 155.682 60.87 L 161.481 60.87 L 167.279 60.87 L 173.077 60.87 L 178.875 60.87 L 184.674 60.87 L 190.472 60.87 M 190.472 58.363 L 184.674 58.363 L 178.876 58.363 L 173.078 58.363 L 167.279 58.363 L 161.481 58.363 L 155.682 58.363 L 149.884 58.363 L 144.085 58.363 C 143.741 58.363 143.404 58.398 143.078 58.465 C 142.752 58.533 142.438 58.632 142.138 58.759 C 141.839 58.886 141.554 59.042 141.287 59.223 C 141.02 59.403 140.772 59.609 140.544 59.836 C 140.317 60.063 140.111 60.312 139.931 60.579 C 139.75 60.846 139.594 61.131 139.467 61.43 C 139.34 61.73 139.241 62.044 139.173 62.369 C 139.106 62.695 139.071 63.032 139.071 63.376 L 139.071 67.765 L 139.071 72.153 L 139.071 76.541 L 139.071 80.929 L 139.071 85.317 L 139.071 89.705 L 139.071 94.093 L 139.071 98.481 C 139.071 98.826 139.106 99.162 139.173 99.488 C 139.241 99.814 139.339 100.128 139.467 100.428 C 139.594 100.728 139.75 101.012 139.93 101.279 C 140.111 101.546 140.317 101.794 140.544 102.021 C 140.772 102.248 141.02 102.454 141.287 102.635 C 141.554 102.815 141.839 102.971 142.138 103.098 C 142.438 103.226 142.753 103.325 143.078 103.392 C 143.404 103.459 143.74 103.494 144.085 103.494 L 148.749 103.494 L 153.412 103.494 L 158.075 103.494 L 162.738 103.494 L 167.402 103.494 L 172.065 103.494 L 176.728 103.494 L 181.391 103.494 C 181.736 103.494 181.181 102.622 180.722 101.598 C 180.263 100.574 179.899 99.398 180.624 98.79 C 181.35 98.182 181.184 94.679 182.225 92.604 C 183.266 90.529 185.513 89.882 186.307 89.014 C 187.102 88.146 187.971 88.203 188.779 88.283 C 189.587 88.362 190.334 88.463 190.887 87.683 C 191.44 86.903 192.59 87.212 193.601 87.63 C 194.612 88.049 195.485 88.576 195.485 88.231 L 195.485 85.124 L 195.485 82.017 L 195.485 78.911 L 195.485 75.804 L 195.485 72.697 L 195.485 69.59 L 195.485 66.483 L 195.485 63.376 C 195.485 63.031 195.45 62.694 195.383 62.368 C 195.315 62.043 195.217 61.729 195.089 61.429 C 194.962 61.13 194.807 60.845 194.626 60.578 C 194.445 60.312 194.24 60.063 194.012 59.836 C 193.785 59.609 193.536 59.403 193.269 59.222 C 193.003 59.042 192.718 58.886 192.418 58.759 C 192.119 58.632 191.804 58.533 191.479 58.465 C 191.153 58.398 190.817 58.363 190.472 58.363"/>
  <path d="M 187.963 88.45 L 178.561 88.45 C 177.869 88.45 177.307 87.889 177.307 87.197 C 177.307 86.504 177.869 85.943 178.561 85.943 L 187.963 85.943 C 188.656 85.943 189.217 86.504 189.217 87.197 C 189.217 87.889 188.656 88.45 187.963 88.45 Z"/>
  <path d="M 181.079 94.684 L 178.561 94.719 C 177.869 94.719 177.307 94.157 177.307 93.465 C 177.307 92.772 177.869 92.211 178.561 92.211 L 182.091 92.209 C 182.784 92.209 181.569 92.832 181.569 93.525 C 181.569 94.217 181.772 94.684 181.079 94.684 Z"/>
  <path style="font-size: medium; font-style: normal; font-variant: normal; font-weight: normal; font-stretch: normal; text-indent: 0px; text-align: start; text-decoration: none; line-height: normal; letter-spacing: normal; word-spacing: normal; text-transform: none; direction: ltr; writing-mode: lr-tb; text-anchor: start; baseline-shift: baseline; opacity: 1; color: rgb(0, 0, 0); stroke: none; stroke-width: 6; marker: none; visibility: visible; display: inline; overflow: visible; font-family: Sans; fill-rule: nonzero; paint-order: fill; fill: rgb(0, 0, 0);" d="M 191.289 86.702 C 184.82 86.702 179.559 91.963 179.559 98.432 C 179.559 104.901 184.82 110.162 191.289 110.162 C 197.757 110.162 203.018 104.901 203.018 98.432 C 203.018 91.963 197.757 86.702 191.289 86.702 Z M 191.289 88.266 C 196.912 88.266 201.454 92.808 201.454 98.432 C 201.454 104.056 196.912 108.598 191.289 108.598 C 185.665 108.598 181.123 104.056 181.123 98.432 C 181.123 92.808 185.665 88.266 191.289 88.266 Z"/>
  <text style="fill: rgb(51, 51, 51); font-family: Arial, sans-serif; font-size: 4.5px; font-weight: 700; white-space: pre;" transform="matrix(1, 0, 0, 1, 0.5335990190505981, -3.920353889465332)"><tspan x="183.153" y="99.855">Quality</tspan><tspan x="183.153" dy="1em">​</tspan><tspan>Control</tspan><tspan x="183.153" dy="1em">​</tspan><tspan>Mode</tspan></text>
</svg>