<?xml version="1.0" encoding="utf-8"?>
<svg viewBox="24.7366 8.3819 79.2194 45.131" xmlns="http://www.w3.org/2000/svg">
  <g style="" transform="matrix(0.6268190145492554, 0, 0, 0.6268190145492554, 16.931415557861328, 3.4030330181121826)">
    <path d="M 94.454 11.943 C 96.659 11.943 98.452 13.736 98.452 15.941 L 98.452 71.945 C 98.452 74.149 96.659 75.943 94.454 75.943 L 20.45 75.943 C 18.245 75.943 16.452 74.149 16.452 71.945 L 16.452 15.941 C 16.452 13.736 18.245 11.943 20.45 11.943 L 94.454 11.943 M 94.454 7.943 L 20.45 7.943 C 16.051 7.943 12.452 11.542 12.452 15.941 L 12.452 71.945 C 12.452 76.344 16.051 79.943 20.45 79.943 L 94.454 79.943 C 98.852 79.943 102.452 76.344 102.452 71.945 L 102.452 15.941 C 102.452 11.542 98.852 7.943 94.454 7.943 Z"/>
    <path d="M 45.452 24.943 C 55.929 24.943 64.452 33.466 64.452 43.943 C 64.452 54.421 55.929 62.943 45.452 62.943 C 34.975 62.943 26.452 54.421 26.452 43.944 C 26.452 33.467 34.976 24.943 45.452 24.943 M 45.452 20.943 C 32.748 20.943 22.452 31.239 22.452 43.943 C 22.452 56.648 32.749 66.943 45.452 66.943 C 58.156 66.943 68.452 56.648 68.452 43.944 C 68.452 31.239 58.157 20.943 45.452 20.943 Z"/>
    <path d="M 51.014 43.198 C 50.32 43.198 49.604 43.246 48.882 43.321 C 48.733 42.515 48.315 41.806 47.715 41.293 C 52.408 34.811 52.456 27.109 45.453 27.109 C 38.45 27.109 38.498 34.811 43.191 41.293 C 42.591 41.806 42.173 42.515 42.024 43.321 C 41.302 43.246 40.587 43.198 39.893 43.198 C 32.934 43.198 27.692 46.848 30.874 52.36 C 32.076 54.442 33.648 55.35 35.328 55.35 C 38.539 55.35 42.138 52.024 44.284 47.228 C 44.651 47.36 45.041 47.444 45.453 47.444 C 45.866 47.444 46.255 47.36 46.622 47.228 C 48.768 52.024 52.366 55.351 55.578 55.351 C 57.257 55.351 58.83 54.442 60.032 52.361 C 63.214 46.848 57.973 43.198 51.014 43.198 Z M 35.327 51.35 C 34.939 51.35 34.471 50.592 34.337 50.36 C 34.203 50.128 33.781 49.344 33.974 49.008 C 34.405 48.263 36.498 47.215 39.813 47.197 C 38.221 49.911 36.271 51.35 35.327 51.35 Z M 45.452 37.443 C 44.003 34.911 43.619 32.613 44.049 31.575 C 44.102 31.448 44.242 31.109 45.452 31.109 C 46.662 31.109 46.802 31.447 46.855 31.575 C 47.285 32.613 46.902 34.911 45.452 37.443 Z M 56.567 50.361 C 56.433 50.593 55.965 51.351 55.578 51.351 C 54.635 51.351 52.684 49.911 51.091 47.198 C 54.406 47.215 56.499 48.262 56.93 49.009 C 57.124 49.344 56.702 50.129 56.567 50.361 Z"/>
    <path d="M 90.452 25.943 L 75.452 25.943 C 74.348 25.943 73.452 25.047 73.452 23.943 C 73.452 22.839 74.348 21.943 75.452 21.943 L 90.452 21.943 C 91.557 21.943 92.452 22.839 92.452 23.943 C 92.452 25.047 91.557 25.943 90.452 25.943 Z"/>
    <path d="M 90.452 36.068 L 75.452 36.068 C 74.348 36.068 73.452 35.172 73.452 34.068 C 73.452 32.964 74.348 32.068 75.452 32.068 L 90.452 32.068 C 91.557 32.068 92.452 32.964 92.452 34.068 C 92.452 35.172 91.557 36.068 90.452 36.068 Z"/>
    <path d="M 90.452 45.943 L 75.452 45.943 C 74.348 45.943 73.452 45.047 73.452 43.943 C 73.452 42.838 74.348 41.943 75.452 41.943 L 90.452 41.943 C 91.557 41.943 92.452 42.838 92.452 43.943 C 92.452 45.047 91.557 45.943 90.452 45.943 Z"/>
    <path d="M 90.452 55.943 L 75.452 55.943 C 74.348 55.943 73.452 55.047 73.452 53.943 C 73.452 52.838 74.348 51.943 75.452 51.943 L 90.452 51.943 C 91.557 51.943 92.452 52.838 92.452 53.943 C 92.452 55.047 91.557 55.943 90.452 55.943 Z"/>
    <path d="M 90.452 65.943 L 75.452 65.943 C 74.348 65.943 73.452 65.047 73.452 63.943 C 73.452 62.838 74.348 61.943 75.452 61.943 L 90.452 61.943 C 91.557 61.943 92.452 62.838 92.452 63.943 C 92.452 65.047 91.557 65.943 90.452 65.943 Z"/>
  </g>
  <path d="M 101.48 40.146 C 102.846 40.146 103.956 39.036 103.956 37.67 C 103.956 36.949 103.656 36.319 103.093 35.807 C 102.987 35.712 102.965 35.66 102.965 35.518 L 102.974 31.26 C 102.974 30.269 102.372 29.61 101.48 29.61 C 100.584 29.61 99.982 30.269 99.982 31.26 L 99.987 35.518 C 99.987 35.66 99.963 35.712 99.863 35.807 C 99.294 36.319 99 36.949 99 37.67 C 99 39.036 100.105 40.146 101.48 40.146 Z M 101.48 39.458 C 100.493 39.458 99.692 38.652 99.692 37.67 C 99.692 37.077 99.973 36.542 100.474 36.205 C 100.622 36.106 100.679 36.016 100.679 35.821 L 100.679 31.289 C 100.679 30.692 101.006 30.307 101.48 30.307 C 101.949 30.307 102.271 30.692 102.271 31.289 L 102.271 35.821 C 102.271 36.016 102.329 36.106 102.475 36.205 C 102.978 36.542 103.258 37.077 103.258 37.67 C 103.258 38.652 102.461 39.458 101.48 39.458 Z M 101.476 38.818 C 102.11 38.818 102.623 38.306 102.623 37.665 C 102.623 37.219 102.372 36.854 102.007 36.655 C 101.855 36.575 101.802 36.518 101.802 36.286 L 101.802 33.768 C 101.802 33.521 101.66 33.375 101.476 33.375 C 101.295 33.375 101.147 33.521 101.147 33.768 L 101.147 36.286 C 101.147 36.518 101.096 36.575 100.944 36.655 C 100.579 36.854 100.328 37.219 100.328 37.665 C 100.328 38.306 100.84 38.818 101.476 38.818 Z" style=""/>
  <path d="M 83.345 36.782 C 83.757 37.125 84.171 37.469 85.064 37.469 C 86.783 37.469 86.783 36.094 88.503 36.094 C 89.397 36.094 89.81 36.438 90.222 36.782 C 90.635 37.125 91.048 37.469 91.941 37.469 C 93.661 37.469 93.661 36.094 95.38 36.094 C 96.274 36.094 96.687 36.438 97.099 36.782 M 83.345 32.656 C 83.757 33 84.171 33.343 85.064 33.343 C 86.783 33.343 86.783 31.968 88.503 31.968 C 89.397 31.968 89.81 32.311 90.222 32.656 C 90.635 33 91.048 33.343 91.941 33.343 C 93.661 33.343 93.661 31.968 95.38 31.968 C 96.274 31.968 96.687 32.311 97.099 32.656" stroke="#000000" stroke-width="2" stroke-linecap="round" stroke-linejoin="round" style=""/>
  <path d="M 92.072 29.118 C 91.881 29.308 91.881 29.616 92.072 29.805 C 92.26 29.995 92.568 29.995 92.758 29.805 L 95.022 27.541 C 95.401 27.162 95.401 26.547 95.022 26.168 L 92.756 23.903 C 92.566 23.712 92.259 23.712 92.07 23.903 C 91.88 24.091 91.88 24.399 92.07 24.589 L 93.85 26.367 L 85.124 26.367 C 84.855 26.367 84.638 26.585 84.638 26.853 C 84.638 27.12 84.855 27.339 85.124 27.339 L 93.851 27.339 L 92.072 29.118 Z" fill="#0F0F0F" style=""/>
</svg>