<?xml version="1.0" encoding="utf-8"?>
<svg viewBox="6.2365 6.07 90.9166 74.2828" xmlns="http://www.w3.org/2000/svg">
  <g id="Layer_2" data-name="Layer 2" transform="matrix(1.5475590229034424, 0, 0, 1.5475590229034424, 6.236511230468736, 6.070038795471177)" style="">
    <g id="invisible_box" data-name="invisible box">
      <rect width="48" height="48" fill="none"/>
    </g>
    <g id="Medical">
      <g>
        <path d="M32,10H21V6h5a2,2,0,0,0,0-4H12a2,2,0,0,0,0,4h5v4H9a2.9,2.9,0,0,0-3,3v8a2.9,2.9,0,0,0,3,3H28v7a2.9,2.9,0,0,0,3,3h8a2.9,2.9,0,0,0,3-3V20A10,10,0,0,0,32,10Zm6,20H32V23a2.9,2.9,0,0,0-3-3H10V14H32a6,6,0,0,1,6,6Z"/>
        <path d="M35,36l-3,3.4a3.9,3.9,0,0,0,.4,5.6,4,4,0,0,0,5.2,0,3.9,3.9,0,0,0,.4-5.6Z"/>
      </g>
    </g>
  </g>
  <path class="st0" d="M 80.984 38.525 C 81.744 39.929 83.502 40.447 84.906 39.685 C 86.308 38.92 86.828 37.165 86.062 35.763 C 85.483 34.708 85.03 33.988 84.737 33.228 C 84.443 32.465 84.225 31.606 84.217 30.094 C 84.22 28.78 84.395 27.952 84.626 27.265 C 84.804 26.747 85.028 26.29 85.322 25.752 C 85.759 24.955 86.395 23.967 86.93 22.59 C 87.464 21.217 87.825 19.511 87.818 17.429 C 87.826 15.303 87.452 13.565 86.899 12.18 C 86.345 10.788 85.698 9.801 85.268 8.998 C 84.507 7.596 82.749 7.077 81.346 7.84 C 79.943 8.606 79.426 10.363 80.189 11.765 C 80.771 12.82 81.223 13.537 81.517 14.297 C 81.809 15.058 82.029 15.917 82.034 17.429 C 82.029 18.741 81.857 19.566 81.627 20.253 C 81.449 20.772 81.224 21.231 80.93 21.767 C 80.495 22.565 79.858 23.554 79.321 24.929 C 78.787 26.303 78.428 28.008 78.434 30.094 C 78.428 32.219 78.801 33.955 79.353 35.344 C 79.906 36.736 80.556 37.724 80.984 38.525 Z" style="" transform="matrix(1, 0, 0, 1, -1.4210854715202004e-14, -1.4210854715202004e-14)"/>
  <path class="st0" d="M 90.319 38.126 C 91.084 39.53 92.839 40.048 94.242 39.285 C 95.645 38.521 96.161 36.766 95.4 35.364 C 94.818 34.31 94.369 33.589 94.074 32.83 C 93.783 32.067 93.561 31.207 93.555 29.695 C 93.56 28.381 93.732 27.555 93.964 26.868 C 94.14 26.349 94.365 25.891 94.662 25.353 C 95.094 24.556 95.733 23.568 96.265 22.192 C 96.801 20.818 97.16 19.111 97.153 17.03 C 97.161 14.903 96.787 13.169 96.234 11.78 C 95.683 10.391 95.036 9.405 94.608 8.602 C 93.845 7.198 92.088 6.68 90.683 7.443 C 89.279 8.207 88.763 9.962 89.525 11.364 C 90.106 12.421 90.558 13.139 90.852 13.898 C 91.146 14.659 91.362 15.518 91.369 17.03 C 91.364 18.342 91.192 19.167 90.962 19.854 C 90.785 20.374 90.561 20.832 90.267 21.369 C 89.83 22.166 89.196 23.155 88.659 24.529 C 88.123 25.903 87.764 27.61 87.771 29.695 C 87.764 31.821 88.137 33.558 88.69 34.946 C 89.244 36.337 89.891 37.323 90.319 38.126 Z" style="" transform="matrix(1, 0, 0, 1, -1.4210854715202004e-14, -1.4210854715202004e-14)"/>
</svg>