<?xml version="1.0" encoding="utf-8"?>
<svg viewBox="6.5737 6.4994 126.11 171.9682" xmlns="http://www.w3.org/2000/svg">
  <g transform="matrix(5.732272148132324, 0, 0, 5.732272148132324, -22.087657928466797, 0.7671329975128174)" style="">
    <path d="M14.5,5h3C17.8,5,18,4.8,18,4.5S17.8,4,17.5,4h-3C14.2,4,14,4.2,14,4.5S14.2,5,14.5,5z"/>
    <path d="M26.5,30h-4c-0.3,0-0.5-0.2-0.5-0.5V28h0.5c0.3,0,0.5-0.2,0.5-0.5V26h0.5c0.8,0,1.5-0.7,1.5-1.5v-22C25,1.7,24.3,1,23.5,1   h-15C7.7,1,7,1.7,7,2.5v22C7,25.3,7.7,26,8.5,26H9v1.5C9,27.8,9.2,28,9.5,28H10v1.5c0,0.3-0.2,0.5-0.5,0.5h-4C5.2,30,5,30.2,5,30.5   S5.2,31,5.5,31h4c0.8,0,1.5-0.7,1.5-1.5V28h0.5c0.3,0,0.5-0.2,0.5-0.5V26h8v1.5c0,0.3,0.2,0.5,0.5,0.5H21v1.5   c0,0.8,0.7,1.5,1.5,1.5h4c0.3,0,0.5-0.2,0.5-0.5S26.8,30,26.5,30z M11,27h-1v-1h1V27z M20.5,25h-9h-2h-1C8.2,25,8,24.8,8,24.5v-22   C8,2.2,8.2,2,8.5,2h15C23.8,2,24,2.2,24,2.5v22c0,0.3-0.2,0.5-0.5,0.5h-1H20.5z M21,27v-1h1v1H21z"/>
    <path d="M16,16.5c-1.4,0-2.5,1.1-2.5,2.5s1.1,2.5,2.5,2.5s2.5-1.1,2.5-2.5S17.4,16.5,16,16.5z M16,20.5c-0.8,0-1.5-0.7-1.5-1.5   c0-0.7,0.4-1.2,1-1.4V18c0,0.3,0.2,0.5,0.5,0.5s0.5-0.2,0.5-0.5v-0.4c0.6,0.2,1,0.8,1,1.4C17.5,19.8,16.8,20.5,16,20.5z"/>
  </g>
  <text style="fill: rgb(51, 51, 51); font-family: Arial, sans-serif; font-size: 13px; font-weight: 700; text-anchor: middle; white-space: pre;" transform="matrix(1, 0, 0, 1, 33.37922668457031, 14.120132446289062)"><tspan x="35.857" y="46.196">On / Off</tspan><tspan x="35.857" dy="1em">​</tspan><tspan>Boiler</tspan></text>
</svg>