<?xml version="1.0" encoding="utf-8"?>
<svg viewBox="257.4803 82.53 53.4957 43.015" xmlns="http://www.w3.org/2000/svg">
  <path d="M 306.128 122.156 C 308.803 122.156 310.976 119.982 310.976 117.309 C 310.976 115.897 310.39 114.662 309.286 113.659 C 309.081 113.473 309.035 113.371 309.035 113.093 L 309.055 104.755 C 309.055 102.814 307.874 101.523 306.128 101.523 C 304.373 101.523 303.195 102.814 303.195 104.755 L 303.204 113.093 C 303.204 113.371 303.158 113.473 302.962 113.659 C 301.849 114.662 301.272 115.897 301.272 117.309 C 301.272 119.982 303.436 122.156 306.128 122.156 Z M 306.128 120.81 C 304.196 120.81 302.628 119.229 302.628 117.309 C 302.628 116.147 303.176 115.097 304.159 114.439 C 304.448 114.244 304.559 114.068 304.559 113.687 L 304.559 104.81 C 304.559 103.641 305.2 102.887 306.128 102.887 C 307.047 102.887 307.678 103.641 307.678 104.81 L 307.678 113.687 C 307.678 114.068 307.791 114.244 308.078 114.439 C 309.063 115.097 309.61 116.147 309.61 117.309 C 309.61 119.229 308.05 120.81 306.128 120.81 Z M 306.119 119.556 C 307.363 119.556 308.367 118.552 308.367 117.297 C 308.367 116.425 307.874 115.711 307.159 115.321 C 306.863 115.163 306.76 115.052 306.76 114.596 L 306.76 109.666 C 306.76 109.184 306.482 108.897 306.119 108.897 C 305.767 108.897 305.478 109.184 305.478 109.666 L 305.478 114.596 C 305.478 115.052 305.377 115.163 305.08 115.321 C 304.364 115.711 303.873 116.425 303.873 117.297 C 303.873 118.552 304.876 119.556 306.119 119.556 Z" style=""/>
  <path d="M 299.537 95.796 L 280.181 82.891 C 279.826 82.657 279.411 82.53 278.987 82.53 C 278.561 82.53 278.148 82.657 277.795 82.891 L 258.439 95.796 C 257.06 96.714 257.194 98.779 258.678 99.514 C 258.974 99.661 259.299 99.736 259.63 99.736 L 261.781 99.736 L 261.781 123.394 C 261.781 124.581 262.743 125.545 263.932 125.545 L 294.042 125.545 C 295.229 125.545 296.193 124.581 296.193 123.394 L 296.193 99.736 L 298.343 99.736 C 299.997 99.738 301.036 97.946 300.21 96.512 C 300.045 96.226 299.815 95.981 299.539 95.796 L 299.537 95.796 Z M 291.891 121.243 L 266.083 121.243 L 266.083 95.864 L 278.987 87.262 L 291.891 95.864 L 291.891 121.243 Z" style=""/>
</svg>