<?xml version="1.0" encoding="utf-8"?>
<svg viewBox="203.651 67.762 56 45.21" xmlns="http://www.w3.org/2000/svg">
  <path d="M 237.47 67.762 C 226.257 67.762 216.83 76.361 215.468 87.217 C 216.786 87.262 218.037 87.485 219.221 87.843 C 220.248 78.64 227.954 71.559 237.47 71.559 C 247.656 71.559 255.831 79.757 255.854 89.943 C 255.876 100.151 247.678 108.349 237.493 108.349 C 234.276 108.349 231.283 107.522 228.692 106.07 C 228.29 107.299 227.731 108.416 227.039 109.443 C 230.166 111.163 233.74 112.124 237.493 112.124 C 249.599 112.124 259.651 102.072 259.651 89.943 C 259.651 77.836 249.577 67.762 237.47 67.762 Z M 237.448 79.824 C 238.654 79.824 239.637 78.819 239.637 77.635 C 239.637 76.406 238.654 75.446 237.448 75.446 C 236.242 75.446 235.259 76.406 235.259 77.635 C 235.259 78.819 236.242 79.824 237.448 79.824 Z M 243.881 81.812 C 245.087 81.812 246.07 80.807 246.07 79.6 C 246.07 78.394 245.087 77.389 243.881 77.389 C 242.675 77.389 241.692 78.394 241.692 79.6 C 241.692 80.807 242.675 81.812 243.881 81.812 Z M 230.724 81.812 C 231.975 81.812 232.913 80.829 232.913 79.6 C 232.913 78.394 231.931 77.411 230.724 77.411 C 229.518 77.411 228.535 78.394 228.535 79.6 C 228.535 80.807 229.518 81.812 230.724 81.812 Z M 226.324 86.525 C 227.53 86.525 228.513 85.542 228.513 84.336 C 228.513 83.107 227.53 82.124 226.324 82.124 C 225.118 82.124 224.135 83.107 224.135 84.336 C 224.135 85.542 225.118 86.525 226.324 86.525 Z M 248.281 86.547 C 249.488 86.547 250.47 85.564 250.47 84.358 C 250.47 83.13 249.488 82.147 248.281 82.147 C 247.075 82.147 246.092 83.13 246.092 84.358 C 246.092 85.564 247.075 86.547 248.281 86.547 Z M 237.448 103.524 C 239.414 103.524 241 101.938 241 99.95 C 241 98.52 240.151 97.292 238.922 96.733 L 238.922 86.279 C 238.922 85.43 238.252 84.76 237.448 84.76 C 236.644 84.76 235.974 85.43 235.974 86.279 L 235.974 96.733 C 234.745 97.292 233.896 98.52 233.896 99.95 C 233.896 101.938 235.46 103.524 237.448 103.524 Z M 214.999 112.972 C 221.231 112.972 226.346 107.88 226.346 101.625 C 226.346 95.415 221.231 90.278 214.999 90.278 C 208.789 90.278 203.651 95.415 203.651 101.625 C 203.651 107.88 208.789 112.972 214.999 112.972 Z"/>
</svg>