<?xml version="1.0" encoding="iso-8859-1"?>
<!-- Uploaded to: SVG Repo, www.svgrepo.com, Generator: SVG Repo Mixer Tools -->
<svg fill="#000000" height="800px" width="800px" version="1.1" id="Layer_1" xmlns="http://www.w3.org/2000/svg" xmlns:xlink="http://www.w3.org/1999/xlink" 
	 viewBox="0 0 508.185 508.185" xml:space="preserve">
<g transform="translate(0 -1)">
	<g>
		<g>
			<path d="M276.452,14.369L126.431,121.527H22.261C9.967,121.527,0,131.494,0,143.788v222.609c0,12.294,9.967,22.261,22.261,22.261
				h104.171l150.021,107.158c14.734,10.524,35.2-0.008,35.2-18.114V32.484C311.652,14.377,291.186,3.845,276.452,14.369z
				 M267.13,434.444l-111.304-79.503v-33.066c0-12.294-9.967-22.261-22.261-22.261c-12.294,0-22.261,9.967-22.261,22.261v22.261
				H44.522V166.049h66.783v22.261c0,12.294,9.967,22.261,22.261,22.261c12.294,0,22.261-9.967,22.261-22.261v-33.066L267.13,75.741
				V434.444z"/>
			<path d="M454.438,255.092l47.226-47.226c8.693-8.693,8.693-22.788,0-31.482c-8.693-8.693-22.788-8.693-31.482,0l-47.226,47.226
				l-47.222-47.222c-8.693-8.693-22.788-8.693-31.482,0c-8.693,8.693-8.693,22.788,0,31.482l47.222,47.222l-47.222,47.222
				c-8.693,8.693-8.693,22.788,0,31.482c8.693,8.693,22.788,8.693,31.482,0l47.222-47.222l47.226,47.226
				c8.693,8.693,22.788,8.693,31.482,0c8.693-8.693,8.693-22.788,0-31.482L454.438,255.092z"/>
		</g>
	</g>
</g>
</svg>