<?xml version="1.0" encoding="utf-8"?>
<svg viewBox="257.4803 82.53 43.0194 43.015" xmlns="http://www.w3.org/2000/svg">
  <path d="M 278.963 117.454 C 281.638 117.454 283.811 115.28 283.811 112.607 C 283.811 111.195 283.225 109.96 282.121 108.957 C 281.916 108.771 281.87 108.669 281.87 108.391 L 281.89 100.053 C 281.89 98.112 280.709 96.821 278.963 96.821 C 277.208 96.821 276.03 98.112 276.03 100.053 L 276.039 108.391 C 276.039 108.669 275.993 108.771 275.797 108.957 C 274.684 109.96 274.107 111.195 274.107 112.607 C 274.107 115.28 276.271 117.454 278.963 117.454 Z M 278.963 116.108 C 277.031 116.108 275.463 114.527 275.463 112.607 C 275.463 111.445 276.011 110.395 276.994 109.737 C 277.283 109.542 277.394 109.366 277.394 108.985 L 277.394 100.108 C 277.394 98.939 278.035 98.185 278.963 98.185 C 279.882 98.185 280.513 98.939 280.513 100.108 L 280.513 108.985 C 280.513 109.366 280.626 109.542 280.913 109.737 C 281.898 110.395 282.445 111.445 282.445 112.607 C 282.445 114.527 280.885 116.108 278.963 116.108 Z M 278.954 114.854 C 280.198 114.854 281.202 113.85 281.202 112.595 C 281.202 111.723 280.709 111.009 279.994 110.619 C 279.698 110.461 279.595 110.35 279.595 109.894 L 279.595 104.964 C 279.595 104.482 279.317 104.195 278.954 104.195 C 278.602 104.195 278.313 104.482 278.313 104.964 L 278.313 109.894 C 278.313 110.35 278.212 110.461 277.915 110.619 C 277.199 111.009 276.708 111.723 276.708 112.595 C 276.708 113.85 277.711 114.854 278.954 114.854 Z" style=""/>
  <path d="M 299.537 95.796 L 280.181 82.891 C 279.826 82.657 279.411 82.53 278.987 82.53 C 278.561 82.53 278.148 82.657 277.795 82.891 L 258.439 95.796 C 257.06 96.714 257.194 98.779 258.678 99.514 C 258.974 99.661 259.299 99.736 259.63 99.736 L 261.781 99.736 L 261.781 123.394 C 261.781 124.581 262.743 125.545 263.932 125.545 L 294.042 125.545 C 295.229 125.545 296.193 124.581 296.193 123.394 L 296.193 99.736 L 298.343 99.736 C 299.997 99.738 301.036 97.946 300.21 96.512 C 300.045 96.226 299.815 95.981 299.539 95.796 L 299.537 95.796 Z M 291.891 121.243 L 266.083 121.243 L 266.083 95.864 L 278.987 87.262 L 291.891 95.864 L 291.891 121.243 Z" style=""/>
</svg>