<?xml version="1.0" encoding="utf-8"?>
<svg viewBox="1.8488 1.2955 29.9637 13.9067" xmlns="http://www.w3.org/2000/svg">
  <path d="M 46.663 -31.765 L -31.337 -31.765 C -34.097 -31.762 -36.334 -29.525 -36.337 -26.765 L -36.337 9.235 C -36.334 11.995 -34.097 14.232 -31.337 14.235 L 46.663 14.235 C 49.423 14.232 51.66 11.995 51.663 9.235 L 51.663 -26.765 C 51.66 -29.525 49.423 -31.762 46.663 -31.765 Z M 46.663 12.235 L -31.337 12.235 C -32.993 12.233 -34.335 10.891 -34.337 9.235 L -34.337 -26.765 C -34.335 -28.421 -32.993 -29.763 -31.337 -29.765 L 46.663 -29.765 C 48.319 -29.763 49.661 -28.421 49.663 -26.765 L 49.663 -24.765 L 2.663 -24.765 C -0.097 -24.762 -2.334 -22.525 -2.337 -19.765 L -2.337 2.235 C -2.334 4.995 -0.097 7.232 2.663 7.235 L 49.663 7.235 L 49.663 9.235 C 49.661 10.891 48.319 12.233 46.663 12.235 Z M 49.663 5.235 L 2.663 5.235 C 1.007 5.233 -0.335 3.891 -0.337 2.235 L -0.337 -19.765 C -0.335 -21.421 1.007 -22.763 2.663 -22.765 L 49.663 -22.765 L 49.663 5.235 Z" transform="matrix(0.27696600556373596, 0, 0, 0.27696600556373596, 11.912904739379883, 11.259594917297363)"/>
  <path d="M -18.337 -18.765 C -23.857 -18.759 -28.331 -14.285 -28.337 -8.765 C -27.812 4.492 -8.859 4.488 -8.337 -8.765 C -8.343 -14.285 -12.816 -18.759 -18.337 -18.765 Z M -18.337 -0.765 C -22.753 -0.77 -26.332 -4.349 -26.337 -8.765 C -25.961 -19.353 -10.711 -19.35 -10.337 -8.765 C -10.342 -4.349 -13.921 -0.77 -18.337 -0.765 Z" transform="matrix(0.27696600556373596, 0, 0, 0.27696600556373596, 11.912904739379883, 11.259594917297363)"/>
  <path d="M 40.477 3.097 C 45.394 4.323 48.834 -1.984 45.062 -5.412 C 44.826 -5.614 44.682 -5.903 44.663 -6.213 L 44.663 -16.765 C 44.663 -19.074 42.163 -20.518 40.163 -19.363 C 39.235 -18.827 38.663 -17.837 38.663 -16.765 L 38.663 -6.211 C 38.648 -5.906 38.508 -5.622 38.276 -5.423 C 35.462 -2.775 36.57 1.927 40.27 3.04 C 40.339 3.06 40.408 3.08 40.477 3.097 Z M 39.63 -3.951 C 40.278 -4.524 40.654 -5.345 40.663 -6.211 L 40.663 -16.765 C 40.663 -17.535 41.497 -18.016 42.163 -17.631 C 42.473 -17.452 42.663 -17.122 42.663 -16.765 L 42.663 -6.213 C 42.675 -5.344 43.053 -4.52 43.704 -3.943 C 45.389 -2.372 44.74 0.434 42.537 1.107 C 40.334 1.78 38.229 -0.184 38.747 -2.429 C 38.882 -3.013 39.19 -3.544 39.63 -3.951 L 39.63 -3.951 Z" transform="matrix(0.27696600556373596, 0, 0, 0.27696600556373596, 11.912904739379883, 11.259594917297363)"/>
  <path d="M 4.663 1.235 L 12.663 1.235 C 13.433 1.235 13.914 0.402 13.529 -0.265 C 13.351 -0.574 13.02 -0.765 12.663 -0.765 L 5.663 -0.765 L 5.663 -7.765 L 12.663 -7.765 C 13.215 -7.765 13.663 -8.213 13.663 -8.765 L 13.663 -17.765 C 13.663 -18.317 13.215 -18.765 12.663 -18.765 L 4.663 -18.765 C 3.893 -18.765 3.412 -17.932 3.797 -17.265 C 3.976 -16.956 4.306 -16.765 4.663 -16.765 L 11.663 -16.765 L 11.663 -9.765 L 4.663 -9.765 C 4.111 -9.765 3.663 -9.317 3.663 -8.765 L 3.663 0.235 C 3.663 0.787 4.111 1.235 4.663 1.235 Z" transform="matrix(0.27696600556373596, 0, 0, 0.27696600556373596, 11.912904739379883, 11.259594917297363)"/>
  <path d="M 32.663 -13.765 C 34.973 -13.765 36.416 -16.265 35.261 -18.265 C 34.725 -19.193 33.735 -19.765 32.663 -19.765 C 30.354 -19.765 28.91 -17.265 30.065 -15.265 C 30.601 -14.337 31.591 -13.765 32.663 -13.765 Z M 32.663 -17.765 C 33.433 -17.765 33.914 -16.932 33.529 -16.265 C 33.351 -15.956 33.02 -15.765 32.663 -15.765 C 31.893 -15.765 31.412 -16.598 31.797 -17.265 C 31.976 -17.574 32.306 -17.765 32.663 -17.765 Z" transform="matrix(0.27696600556373596, 0, 0, 0.27696600556373596, 11.912904739379883, 11.259594917297363)"/>
  <path d="M -16.288 -13.434 C -16.726 -12.801 -16.314 -11.932 -15.547 -11.869 C -15.195 -11.84 -14.854 -11.999 -14.65 -12.287 C -14.212 -12.921 -14.624 -13.79 -15.391 -13.853 C -15.743 -13.882 -16.084 -13.723 -16.288 -13.434 Z" transform="matrix(0.27696600556373596, 0, 0, 0.27696600556373596, 11.912904739379883, 11.259594917297363)"/>
  <path d="M 17.668 1.253 L 25.668 1.253 C 26.438 1.253 26.919 0.42 26.534 -0.247 C 26.355 -0.556 26.025 -0.747 25.668 -0.747 L 18.668 -0.747 L 18.668 -7.747 L 25.668 -7.747 C 26.22 -7.747 26.668 -8.195 26.668 -8.747 L 26.668 -17.747 C 26.668 -18.299 26.22 -18.747 25.668 -18.747 L 17.668 -18.747 C 16.898 -18.747 16.417 -17.914 16.802 -17.247 C 16.98 -16.938 17.311 -16.747 17.668 -16.747 L 24.668 -16.747 L 24.668 -9.747 L 17.668 -9.747 C 17.116 -9.747 16.668 -9.299 16.668 -8.747 L 16.668 0.253 C 16.668 0.805 17.116 1.253 17.668 1.253 Z" transform="matrix(0.27696600556373596, 0, 0, 0.27696600556373596, 11.912904739379883, 11.259594917297363)"/>
  <path fill-rule="evenodd" clip-rule="evenodd" d="M 62.75 -35.976 C 63.125 -35.976 63.429 -35.672 63.429 -35.297 L 63.429 -33.313 L 64.987 -34.871 C 65.252 -35.136 65.682 -35.136 65.948 -34.871 C 66.213 -34.606 66.213 -34.176 65.948 -33.91 L 63.429 -31.392 L 63.429 -27.414 L 66.873 -29.403 L 67.795 -32.843 C 67.892 -33.206 68.265 -33.421 68.627 -33.324 C 68.989 -33.227 69.205 -32.854 69.108 -32.492 L 68.537 -30.364 L 70.255 -31.355 C 70.58 -31.543 70.995 -31.432 71.183 -31.107 C 71.371 -30.782 71.259 -30.366 70.934 -30.179 L 69.217 -29.187 L 71.345 -28.617 C 71.707 -28.52 71.922 -28.147 71.825 -27.785 C 71.728 -27.422 71.355 -27.207 70.993 -27.304 L 67.553 -28.226 L 64.108 -26.238 L 67.553 -24.249 L 70.993 -25.171 C 71.356 -25.268 71.728 -25.053 71.825 -24.69 C 71.923 -24.328 71.707 -23.956 71.345 -23.858 L 69.217 -23.288 L 70.934 -22.297 C 71.26 -22.109 71.371 -21.693 71.183 -21.368 C 70.995 -21.043 70.58 -20.932 70.255 -21.12 L 68.538 -22.111 L 69.108 -19.983 C 69.205 -19.621 68.99 -19.248 68.627 -19.151 C 68.265 -19.054 67.892 -19.269 67.795 -19.632 L 66.873 -23.072 L 63.429 -25.061 L 63.429 -21.084 L 65.948 -18.565 C 66.213 -18.3 66.213 -17.869 65.948 -17.604 C 65.682 -17.339 65.252 -17.339 64.987 -17.604 L 63.429 -19.162 L 63.429 -17.179 C 63.429 -16.803 63.125 -16.499 62.75 -16.499 C 62.374 -16.499 62.07 -16.803 62.07 -17.179 L 62.07 -19.162 L 60.512 -17.604 C 60.247 -17.339 59.817 -17.339 59.551 -17.604 C 59.286 -17.869 59.286 -18.3 59.551 -18.565 L 62.07 -21.084 L 62.07 -25.061 L 58.626 -23.072 L 57.704 -19.632 C 57.607 -19.269 57.234 -19.054 56.872 -19.151 C 56.509 -19.248 56.294 -19.621 56.391 -19.983 L 56.962 -22.111 L 55.244 -21.12 C 54.919 -20.932 54.503 -21.043 54.316 -21.368 C 54.128 -21.693 54.239 -22.109 54.564 -22.297 L 56.282 -23.288 L 54.154 -23.858 C 53.792 -23.956 53.576 -24.328 53.673 -24.69 C 53.771 -25.053 54.143 -25.268 54.506 -25.171 L 57.946 -24.249 L 61.391 -26.238 L 57.946 -28.226 L 54.506 -27.304 C 54.143 -27.207 53.771 -27.422 53.674 -27.785 C 53.577 -28.147 53.792 -28.52 54.154 -28.617 L 56.282 -29.187 L 54.565 -30.179 C 54.24 -30.366 54.128 -30.782 54.316 -31.107 C 54.503 -31.432 54.919 -31.543 55.244 -31.355 L 56.962 -30.364 L 56.391 -32.492 C 56.294 -32.854 56.509 -33.227 56.872 -33.324 C 57.234 -33.421 57.607 -33.206 57.704 -32.843 L 58.626 -29.403 L 62.07 -27.414 L 62.07 -31.392 L 59.551 -33.91 C 59.286 -34.176 59.286 -34.606 59.551 -34.871 C 59.817 -35.136 60.247 -35.136 60.512 -34.871 L 62.07 -33.313 L 62.07 -35.297 C 62.07 -35.672 62.374 -35.976 62.75 -35.976 Z" style="" transform="matrix(0.27696600556373596, 0, 0, 0.27696600556373596, 11.912904739379883, 11.259594917297363)"/>
</svg>