<?xml version="1.0" encoding="utf-8"?>
<svg viewBox="1.8488 2.4618 32.0934 12.7404" xmlns="http://www.w3.org/2000/svg">
  <path d="M 46.663 -31.765 L -31.337 -31.765 C -34.097 -31.762 -36.334 -29.525 -36.337 -26.765 L -36.337 9.235 C -36.334 11.995 -34.097 14.232 -31.337 14.235 L 46.663 14.235 C 49.423 14.232 51.66 11.995 51.663 9.235 L 51.663 -26.765 C 51.66 -29.525 49.423 -31.762 46.663 -31.765 Z M 46.663 12.235 L -31.337 12.235 C -32.993 12.233 -34.335 10.891 -34.337 9.235 L -34.337 -26.765 C -34.335 -28.421 -32.993 -29.763 -31.337 -29.765 L 46.663 -29.765 C 48.319 -29.763 49.661 -28.421 49.663 -26.765 L 49.663 -24.765 L 2.663 -24.765 C -0.097 -24.762 -2.334 -22.525 -2.337 -19.765 L -2.337 2.235 C -2.334 4.995 -0.097 7.232 2.663 7.235 L 49.663 7.235 L 49.663 9.235 C 49.661 10.891 48.319 12.233 46.663 12.235 Z M 49.663 5.235 L 2.663 5.235 C 1.007 5.233 -0.335 3.891 -0.337 2.235 L -0.337 -19.765 C -0.335 -21.421 1.007 -22.763 2.663 -22.765 L 49.663 -22.765 L 49.663 5.235 Z" transform="matrix(0.27696600556373596, 0, 0, 0.27696600556373596, 11.912904739379883, 11.259594917297363)"/>
  <path d="M -18.337 -18.765 C -23.857 -18.759 -28.331 -14.285 -28.337 -8.765 C -27.812 4.492 -8.859 4.488 -8.337 -8.765 C -8.343 -14.285 -12.816 -18.759 -18.337 -18.765 Z M -18.337 -0.765 C -22.753 -0.77 -26.332 -4.349 -26.337 -8.765 C -25.961 -19.353 -10.711 -19.35 -10.337 -8.765 C -10.342 -4.349 -13.921 -0.77 -18.337 -0.765 Z" transform="matrix(0.27696600556373596, 0, 0, 0.27696600556373596, 11.912904739379883, 11.259594917297363)"/>
  <path d="M 40.477 3.097 C 45.394 4.323 48.834 -1.984 45.062 -5.412 C 44.826 -5.614 44.682 -5.903 44.663 -6.213 L 44.663 -16.765 C 44.663 -19.074 42.163 -20.518 40.163 -19.363 C 39.235 -18.827 38.663 -17.837 38.663 -16.765 L 38.663 -6.211 C 38.648 -5.906 38.508 -5.622 38.276 -5.423 C 35.462 -2.775 36.57 1.927 40.27 3.04 C 40.339 3.06 40.408 3.08 40.477 3.097 Z M 39.63 -3.951 C 40.278 -4.524 40.654 -5.345 40.663 -6.211 L 40.663 -16.765 C 40.663 -17.535 41.497 -18.016 42.163 -17.631 C 42.473 -17.452 42.663 -17.122 42.663 -16.765 L 42.663 -6.213 C 42.675 -5.344 43.053 -4.52 43.704 -3.943 C 45.389 -2.372 44.74 0.434 42.537 1.107 C 40.334 1.78 38.229 -0.184 38.747 -2.429 C 38.882 -3.013 39.19 -3.544 39.63 -3.951 L 39.63 -3.951 Z" transform="matrix(0.27696600556373596, 0, 0, 0.27696600556373596, 11.912904739379883, 11.259594917297363)"/>
  <path d="M 4.663 1.235 L 12.663 1.235 C 13.433 1.235 13.914 0.402 13.529 -0.265 C 13.351 -0.574 13.02 -0.765 12.663 -0.765 L 5.663 -0.765 L 5.663 -7.765 L 12.663 -7.765 C 13.215 -7.765 13.663 -8.213 13.663 -8.765 L 13.663 -17.765 C 13.663 -18.317 13.215 -18.765 12.663 -18.765 L 4.663 -18.765 C 3.893 -18.765 3.412 -17.932 3.797 -17.265 C 3.976 -16.956 4.306 -16.765 4.663 -16.765 L 11.663 -16.765 L 11.663 -9.765 L 4.663 -9.765 C 4.111 -9.765 3.663 -9.317 3.663 -8.765 L 3.663 0.235 C 3.663 0.787 4.111 1.235 4.663 1.235 Z" transform="matrix(0.27696600556373596, 0, 0, 0.27696600556373596, 11.912904739379883, 11.259594917297363)"/>
  <path d="M 32.663 -13.765 C 34.973 -13.765 36.416 -16.265 35.261 -18.265 C 34.725 -19.193 33.735 -19.765 32.663 -19.765 C 30.354 -19.765 28.91 -17.265 30.065 -15.265 C 30.601 -14.337 31.591 -13.765 32.663 -13.765 Z M 32.663 -17.765 C 33.433 -17.765 33.914 -16.932 33.529 -16.265 C 33.351 -15.956 33.02 -15.765 32.663 -15.765 C 31.893 -15.765 31.412 -16.598 31.797 -17.265 C 31.976 -17.574 32.306 -17.765 32.663 -17.765 Z" transform="matrix(0.27696600556373596, 0, 0, 0.27696600556373596, 11.912904739379883, 11.259594917297363)"/>
  <path d="M -16.288 -13.434 C -16.726 -12.801 -16.314 -11.932 -15.547 -11.869 C -15.195 -11.84 -14.854 -11.999 -14.65 -12.287 C -14.212 -12.921 -14.624 -13.79 -15.391 -13.853 C -15.743 -13.882 -16.084 -13.723 -16.288 -13.434 Z" transform="matrix(0.27696600556373596, 0, 0, 0.27696600556373596, 11.912904739379883, 11.259594917297363)"/>
  <path d="M 17.668 1.253 L 25.668 1.253 C 26.438 1.253 26.919 0.42 26.534 -0.247 C 26.355 -0.556 26.025 -0.747 25.668 -0.747 L 18.668 -0.747 L 18.668 -7.747 L 25.668 -7.747 C 26.22 -7.747 26.668 -8.195 26.668 -8.747 L 26.668 -17.747 C 26.668 -18.299 26.22 -18.747 25.668 -18.747 L 17.668 -18.747 C 16.898 -18.747 16.417 -17.914 16.802 -17.247 C 16.98 -16.938 17.311 -16.747 17.668 -16.747 L 24.668 -16.747 L 24.668 -9.747 L 17.668 -9.747 C 17.116 -9.747 16.668 -9.299 16.668 -8.747 L 16.668 0.253 C 16.668 0.805 17.116 1.253 17.668 1.253 Z" transform="matrix(0.27696600556373596, 0, 0, 0.27696600556373596, 11.912904739379883, 11.259594917297363)"/>
  <g id="Layer_2" data-name="Layer 2" transform="matrix(0.1279798993246084, 0, 0, 0.1279798993246084, 26.423186354602763, 5.824747739075293)" style="">
    <g id="invisible_box" data-name="invisible box">
      <rect width="48" height="48" fill="none"/>
    </g>
    <g id="Medical">
      <g>
        <path d="M32,10H21V6h5a2,2,0,0,0,0-4H12a2,2,0,0,0,0,4h5v4H9a2.9,2.9,0,0,0-3,3v8a2.9,2.9,0,0,0,3,3H28v7a2.9,2.9,0,0,0,3,3h8a2.9,2.9,0,0,0,3-3V20A10,10,0,0,0,32,10Zm6,20H32V23a2.9,2.9,0,0,0-3-3H10V14H32a6,6,0,0,1,6,6Z"/>
        <path d="M35,36l-3,3.4a3.9,3.9,0,0,0,.4,5.6,4,4,0,0,0,5.2,0,3.9,3.9,0,0,0,.4-5.6Z"/>
      </g>
    </g>
  </g>
  <path class="st0" d="M 74.708 -9.931 C 74.937 -9.513 75.461 -9.358 75.88 -9.584 C 76.299 -9.813 76.454 -10.337 76.226 -10.756 C 76.053 -11.071 75.917 -11.286 75.83 -11.513 C 75.741 -11.741 75.677 -11.998 75.674 -12.449 C 75.675 -12.842 75.727 -13.088 75.797 -13.294 C 75.85 -13.448 75.916 -13.585 76.005 -13.746 C 76.135 -13.983 76.325 -14.277 76.484 -14.69 C 76.644 -15.099 76.751 -15.608 76.749 -16.23 C 76.751 -16.865 76.641 -17.384 76.475 -17.799 C 76.31 -18.213 76.117 -18.508 75.988 -18.748 C 75.761 -19.167 75.236 -19.321 74.817 -19.094 C 74.399 -18.865 74.244 -18.341 74.473 -17.922 C 74.646 -17.607 74.78 -17.392 74.868 -17.165 C 74.955 -16.939 75.021 -16.682 75.023 -16.23 C 75.021 -15.839 74.97 -15.593 74.901 -15.387 C 74.848 -15.233 74.78 -15.094 74.693 -14.935 C 74.563 -14.696 74.373 -14.402 74.214 -13.991 C 74.054 -13.581 73.946 -13.071 73.948 -12.449 C 73.946 -11.815 74.057 -11.297 74.222 -10.882 C 74.387 -10.466 74.581 -10.17 74.708 -9.931 Z" style="" transform="matrix(0.27696600556373596, 0, 0, 0.27696600556373596, 11.912904739379883, 11.259594917297363)"/>
  <path class="st0" d="M 77.496 -10.05 C 77.725 -9.631 78.248 -9.478 78.667 -9.704 C 79.087 -9.933 79.241 -10.457 79.013 -10.876 C 78.84 -11.189 78.705 -11.406 78.618 -11.632 C 78.53 -11.859 78.465 -12.116 78.463 -12.567 C 78.465 -12.959 78.516 -13.207 78.585 -13.411 C 78.638 -13.567 78.704 -13.704 78.793 -13.864 C 78.921 -14.103 79.113 -14.397 79.272 -14.808 C 79.432 -15.219 79.54 -15.728 79.538 -16.35 C 79.54 -16.984 79.428 -17.503 79.264 -17.917 C 79.097 -18.332 78.904 -18.626 78.778 -18.866 C 78.549 -19.285 78.025 -19.44 77.605 -19.212 C 77.185 -18.985 77.031 -18.46 77.259 -18.042 C 77.433 -17.726 77.569 -17.512 77.656 -17.285 C 77.743 -17.057 77.807 -16.8 77.81 -16.35 C 77.809 -15.957 77.757 -15.711 77.687 -15.507 C 77.636 -15.351 77.569 -15.214 77.481 -15.055 C 77.351 -14.815 77.161 -14.522 77.001 -14.111 C 76.84 -13.699 76.733 -13.191 76.736 -12.567 C 76.733 -11.932 76.844 -11.415 77.011 -11.001 C 77.176 -10.586 77.369 -10.29 77.496 -10.05 Z" style="" transform="matrix(0.27696600556373596, 0, 0, 0.27696600556373596, 11.912904739379883, 11.259594917297363)"/>
</svg>