<?xml version="1.0" encoding="utf-8"?>
<svg viewBox="47.302 47.5075 31.9375 35.3435" xmlns="http://www.w3.org/2000/svg">
  <path d="M 71.408 59.858 C 71.408 64.112 68.79 65.979 66.767 66.609 C 66.336 66.743 66.052 66.24 66.31 65.869 C 67.191 64.604 68.208 62.673 68.208 60.858 C 68.208 58.907 66.564 56.604 65.281 55.184 C 64.987 54.859 64.475 55.074 64.459 55.511 C 64.406 56.96 64.177 58.899 63.191 60.419 C 63.033 60.664 62.696 60.684 62.515 60.455 C 62.207 60.065 61.899 59.584 61.59 59.204 C 61.424 58.999 61.124 58.996 60.933 59.177 C 60.187 59.884 59.142 60.986 59.142 62.358 C 59.142 63.287 59.502 64.262 59.908 65.047 C 60.132 65.478 59.734 65.998 59.304 65.772 C 57.521 64.836 55.408 62.941 55.408 59.858 C 55.408 56.711 59.719 52.352 61.364 48.234 C 61.624 47.585 62.425 47.279 62.981 47.703 C 66.352 50.271 71.408 55.236 71.408 59.858 Z" style=""/>
  <text style="font-family: Arial, sans-serif; font-weight: 700; white-space: pre; font-size: 15px;" x="47.302" y="79.851">Watt</text>
</svg>