<?xml version="1.0" encoding="utf-8"?>
<svg viewBox="1.8488 2.4618 24.373 12.7404" xmlns="http://www.w3.org/2000/svg">
  <g transform="matrix(0.27696600556373596, 0, 0, 0.27696600556373596, 11.912904739379881, 11.259594917297363)" style="">
    <path d="M 46.663 -31.765 L -31.337 -31.765 C -34.097 -31.762 -36.334 -29.525 -36.337 -26.765 L -36.337 9.235 C -36.334 11.995 -34.097 14.232 -31.337 14.235 L 46.663 14.235 C 49.423 14.232 51.66 11.995 51.663 9.235 L 51.663 -26.765 C 51.66 -29.525 49.423 -31.762 46.663 -31.765 Z M 46.663 12.235 L -31.337 12.235 C -32.993 12.233 -34.335 10.891 -34.337 9.235 L -34.337 -26.765 C -34.335 -28.421 -32.993 -29.763 -31.337 -29.765 L 46.663 -29.765 C 48.319 -29.763 49.661 -28.421 49.663 -26.765 L 49.663 -24.765 L 2.663 -24.765 C -0.097 -24.762 -2.334 -22.525 -2.337 -19.765 L -2.337 2.235 C -2.334 4.995 -0.097 7.232 2.663 7.235 L 49.663 7.235 L 49.663 9.235 C 49.661 10.891 48.319 12.233 46.663 12.235 Z M 49.663 5.235 L 2.663 5.235 C 1.007 5.233 -0.335 3.891 -0.337 2.235 L -0.337 -19.765 C -0.335 -21.421 1.007 -22.763 2.663 -22.765 L 49.663 -22.765 L 49.663 5.235 Z"/>
    <path d="M -18.337 -18.765 C -23.857 -18.759 -28.331 -14.285 -28.337 -8.765 C -27.812 4.492 -8.859 4.488 -8.337 -8.765 C -8.343 -14.285 -12.816 -18.759 -18.337 -18.765 Z M -18.337 -0.765 C -22.753 -0.77 -26.332 -4.349 -26.337 -8.765 C -25.961 -19.353 -10.711 -19.35 -10.337 -8.765 C -10.342 -4.349 -13.921 -0.77 -18.337 -0.765 Z"/>
    <path d="M 4.663 1.235 L 12.663 1.235 C 13.433 1.235 13.914 0.402 13.529 -0.265 C 13.351 -0.574 13.02 -0.765 12.663 -0.765 L 5.663 -0.765 L 5.663 -7.765 L 12.663 -7.765 C 13.215 -7.765 13.663 -8.213 13.663 -8.765 L 13.663 -17.765 C 13.663 -18.317 13.215 -18.765 12.663 -18.765 L 4.663 -18.765 C 3.893 -18.765 3.412 -17.932 3.797 -17.265 C 3.976 -16.956 4.306 -16.765 4.663 -16.765 L 11.663 -16.765 L 11.663 -9.765 L 4.663 -9.765 C 4.111 -9.765 3.663 -9.317 3.663 -8.765 L 3.663 0.235 C 3.663 0.787 4.111 1.235 4.663 1.235 Z"/>
    <path d="M 32.663 -13.765 C 34.973 -13.765 36.416 -16.265 35.261 -18.265 C 34.725 -19.193 33.735 -19.765 32.663 -19.765 C 30.354 -19.765 28.91 -17.265 30.065 -15.265 C 30.601 -14.337 31.591 -13.765 32.663 -13.765 Z M 32.663 -17.765 C 33.433 -17.765 33.914 -16.932 33.529 -16.265 C 33.351 -15.956 33.02 -15.765 32.663 -15.765 C 31.893 -15.765 31.412 -16.598 31.797 -17.265 C 31.976 -17.574 32.306 -17.765 32.663 -17.765 Z"/>
    <path d="M -16.288 -13.434 C -16.726 -12.801 -16.314 -11.932 -15.547 -11.869 C -15.195 -11.84 -14.854 -11.999 -14.65 -12.287 C -14.212 -12.921 -14.624 -13.79 -15.391 -13.853 C -15.743 -13.882 -16.084 -13.723 -16.288 -13.434 Z"/>
    <path d="M 17.668 1.253 L 25.668 1.253 C 26.438 1.253 26.919 0.42 26.534 -0.247 C 26.355 -0.556 26.025 -0.747 25.668 -0.747 L 18.668 -0.747 L 18.668 -7.747 L 25.668 -7.747 C 26.22 -7.747 26.668 -8.195 26.668 -8.747 L 26.668 -17.747 C 26.668 -18.299 26.22 -18.747 25.668 -18.747 L 17.668 -18.747 C 16.898 -18.747 16.417 -17.914 16.802 -17.247 C 16.98 -16.938 17.311 -16.747 17.668 -16.747 L 24.668 -16.747 L 24.668 -9.747 L 17.668 -9.747 C 17.116 -9.747 16.668 -9.299 16.668 -8.747 L 16.668 0.253 C 16.668 0.805 17.116 1.253 17.668 1.253 Z"/>
    <path d="M -3.49 -23.754 L -10.238 -17.006 M -10.238 -17.006 L -10.238 -22.068 M -10.238 -17.006 L -5.176 -17.006" stroke-width="1.5" stroke-linecap="round" stroke-linejoin="round" style="stroke: rgb(0, 0, 0);"/>
    <line style="fill: rgb(216, 216, 216); stroke: rgb(0, 0, 0);" x1="3.536" y1="2.882" x2="26.726" y2="2.826"/>
  </g>
  <path d="M 21.655 11.617 C 21.753 11.699 21.852 11.781 22.065 11.781 C 22.476 11.781 22.476 11.452 22.887 11.452 C 23.1 11.452 23.199 11.534 23.298 11.617 C 23.396 11.699 23.495 11.781 23.708 11.781 C 24.119 11.781 24.119 11.452 24.53 11.452 C 24.744 11.452 24.843 11.534 24.941 11.617 M 21.655 10.63 C 21.753 10.713 21.852 10.795 22.065 10.795 C 22.476 10.795 22.476 10.466 22.887 10.466 C 23.1 10.466 23.199 10.548 23.298 10.63 C 23.396 10.713 23.495 10.795 23.708 10.795 C 24.119 10.795 24.119 10.466 24.53 10.466 C 24.744 10.466 24.843 10.548 24.941 10.63" stroke="#000000" stroke-width="0.5" stroke-linecap="round" stroke-linejoin="round" style="" transform="matrix(0.9999999999999999, 0, 0, 0.9999999999999999, 0, 0)"/>
  <path d="M 23.348 9.4 C 23.745 9.4 24.07 9.076 24.07 8.678 C 24.07 8.467 23.982 8.284 23.818 8.134 C 23.788 8.106 23.78 8.091 23.78 8.049 L 23.784 6.808 C 23.784 6.518 23.608 6.326 23.348 6.326 C 23.086 6.326 22.91 6.518 22.91 6.808 L 22.912 8.049 C 22.912 8.091 22.905 8.106 22.876 8.134 C 22.71 8.284 22.624 8.467 22.624 8.678 C 22.624 9.076 22.946 9.4 23.348 9.4 Z M 23.348 9.199 C 23.06 9.199 22.826 8.964 22.826 8.678 C 22.826 8.505 22.907 8.347 23.053 8.25 C 23.097 8.221 23.113 8.195 23.113 8.139 L 23.113 6.815 C 23.113 6.642 23.21 6.53 23.348 6.53 C 23.484 6.53 23.578 6.642 23.578 6.815 L 23.578 8.139 C 23.578 8.195 23.595 8.221 23.638 8.25 C 23.785 8.347 23.866 8.505 23.866 8.678 C 23.866 8.964 23.634 9.199 23.348 9.199 Z M 23.346 9.013 C 23.532 9.013 23.681 8.863 23.681 8.676 C 23.681 8.546 23.608 8.44 23.502 8.381 C 23.457 8.359 23.442 8.341 23.442 8.274 L 23.442 7.54 C 23.442 7.467 23.401 7.425 23.346 7.425 C 23.293 7.425 23.251 7.467 23.251 7.54 L 23.251 8.274 C 23.251 8.341 23.236 8.359 23.191 8.381 C 23.085 8.44 23.011 8.546 23.011 8.676 C 23.011 8.863 23.161 9.013 23.346 9.013 Z" style="" transform="matrix(0.9999999999999999, 0, 0, 0.9999999999999999, 0, 0)"/>
</svg>