<?xml version="1.0" standalone="no"?>
<!DOCTYPE svg PUBLIC "-//W3C//DTD SVG 20010904//EN"
 "http://www.w3.org/TR/2001/REC-SVG-20010904/DTD/svg10.dtd">
<svg version="1.0" xmlns="http://www.w3.org/2000/svg"
 width="1254.000000pt" height="1254.000000pt" viewBox="0 0 1254.000000 1254.000000"
 preserveAspectRatio="xMidYMid meet">

<g transform="translate(0.000000,1254.000000) scale(0.100000,-0.100000)"
fill="#000000" stroke="none">
<path d="M5065 10980 c-926 -210 -1740 -623 -2262 -1147 -295 -295 -477 -613
-556 -967 l-22 -101 0 -2125 c0 -2257 -2 -2170 47 -2399 113 -534 511 -1043
1148 -1468 670 -447 1589 -751 2555 -847 518 -51 1093 -46 1649 14 766 84
1527 278 2151 548 197 85 473 223 513 257 l32 27 0 1984 c0 2159 4 2025 -55
2052 -44 20 -67 14 -216 -57 -165 -79 -344 -155 -472 -200 l-89 -31 -61 47
c-143 109 -739 570 -944 730 -122 95 -238 183 -258 194 -54 32 -148 36 -270
11 -309 -63 -684 -73 -988 -26 -188 29 -430 100 -589 174 l-28 13 0 894 c0
756 -2 899 -14 928 -13 31 -30 42 -158 104 -166 80 -290 132 -372 156 -101 30
-196 73 -280 129 -131 87 -117 22 -119 573 -2 532 1 510 -70 553 -44 27 -75
25 -272 -20z m225 -496 c0 -222 -3 -404 -6 -404 -4 0 -24 16 -45 35 -21 19
-57 44 -80 56 -61 31 -215 67 -319 75 -66 5 -90 11 -90 20 0 8 -9 23 -21 35
-28 28 -54 22 -249 -51 -811 -303 -1498 -838 -1760 -1369 -105 -212 -142 -365
-143 -581 0 -123 3 -161 26 -250 45 -185 112 -336 209 -471 75 -103 78 -110
28 -64 -176 165 -372 471 -437 682 -26 85 -27 97 -27 328 -1 330 23 444 148
700 176 360 475 673 911 957 462 302 1083 554 1680 683 83 18 156 30 163 28 9
-4 12 -95 12 -409z m-431 -290 c150 -37 238 -92 398 -246 165 -159 303 -243
503 -306 77 -24 323 -136 429 -196 23 -13 22 -14 -65 -71 -197 -128 -344 -261
-421 -382 -52 -81 -108 -207 -129 -288 -26 -101 -24 -283 5 -389 138 -514 762
-911 1549 -986 262 -25 620 -2 870 55 127 30 134 28 283 -88 74 -57 323 -249
555 -428 231 -179 439 -338 462 -355 23 -16 42 -32 42 -36 0 -15 -395 -119
-659 -173 -697 -142 -1567 -189 -2346 -124 -1179 97 -2315 457 -3055 967 -345
238 -508 459 -588 794 -23 98 -26 134 -26 268 0 131 5 173 27 268 116 498 510
953 1164 1343 227 136 633 321 797 363 33 9 61 18 64 21 10 10 77 5 141 -11z
m1370 -1684 c1 -546 -2 -770 -10 -770 -25 0 -201 132 -279 210 -410 409 -338
930 176 1273 54 36 101 64 105 61 4 -2 8 -351 8 -774z m-3733 -772 c548 -825
1929 -1465 3565 -1653 647 -74 1443 -72 2059 6 718 90 1352 260 1879 504 80
37 154 73 165 81 11 8 24 14 28 14 5 0 7 -870 6 -1932 l-3 -1933 -120 -62
c-731 -378 -1662 -631 -2635 -717 -1216 -108 -2295 42 -3250 452 -460 197
-912 492 -1219 795 -402 396 -580 757 -621 1260 -6 63 -10 848 -10 1787 l0
1675 46 -90 c25 -49 75 -134 110 -187z"/>
<path d="M4340 7602 c-50 -24 -76 -80 -60 -127 29 -89 200 -132 296 -74 84 51
58 159 -48 204 -50 20 -144 19 -188 -3z"/>
</g>
</svg>
